<?xml version="1.0" standalone="no"?>
<!DOCTYPE svg PUBLIC "-//W3C//DTD SVG 20010904//EN"
 "http://www.w3.org/TR/2001/REC-SVG-20010904/DTD/svg10.dtd">
<svg version="1.0" xmlns="http://www.w3.org/2000/svg"
 width="2310.000000pt" height="992.000000pt" viewBox="0 0 2310.000000 992.000000"
 preserveAspectRatio="xMidYMid meet">

<g transform="translate(0.000000,992.000000) scale(0.100000,-0.100000)"
fill="#000000" stroke="none">
<path d="M22708 9895 c-63 -16 -131 -58 -165 -102 -16 -21 -51 -76 -77 -123
-134 -236 -382 -578 -573 -791 -440 -492 -928 -864 -1508 -1149 -330 -162
-584 -257 -935 -352 -52 -13 -43 -11 -95 -23 -58 -12 -54 -11 -125 -29 -61
-14 -269 -51 -349 -62 -20 -2 -94 -12 -166 -21 -119 -16 -336 -17 -2492 -20
l-2363 -4 0 489 c0 542 0 547 -65 634 -76 103 -151 128 -392 128 l-173 0 0
309 0 309 198 4 c192 3 198 4 254 31 65 32 121 90 151 156 32 67 31 189 -1
254 -31 61 -97 128 -159 158 l-48 24 -705 0 -705 0 -48 -23 c-62 -31 -127 -96
-157 -157 -34 -67 -35 -188 -3 -256 30 -66 86 -124 151 -156 55 -27 64 -28
252 -33 l195 -5 3 -307 2 -307 -193 -3 -194 -3 -69 -35 c-49 -25 -79 -49 -106
-85 -68 -89 -68 -91 -68 -637 l0 -488 -310 0 -309 0 -3 508 -3 507 -25 50
c-30 62 -95 126 -157 157 -45 21 -62 23 -246 26 l-197 4 2 306 3 307 200 5
c182 5 204 8 243 28 66 35 119 88 149 150 38 78 40 192 3 267 -31 63 -94 126
-156 156 l-49 24 -705 0 -705 0 -46 -23 c-70 -34 -125 -87 -156 -150 -24 -48
-28 -69 -28 -138 0 -70 4 -88 30 -139 37 -71 102 -129 178 -155 48 -17 83 -20
232 -20 l175 0 0 -309 0 -310 -188 -3 -188 -3 -67 -33 c-49 -24 -79 -48 -107
-83 -69 -88 -70 -93 -70 -641 l0 -488 -310 0 -309 0 -3 503 -3 502 -26 56
c-45 95 -139 169 -234 182 -22 4 -113 6 -203 7 l-162 0 2 308 3 307 195 5
c178 5 199 7 242 28 26 13 59 33 74 44 43 35 92 120 105 187 12 54 11 71 -4
127 -29 114 -91 182 -200 222 -58 22 -63 22 -740 20 -656 -3 -684 -4 -731 -23
-68 -28 -130 -86 -163 -153 -24 -48 -28 -69 -28 -137 0 -95 22 -150 84 -218
72 -78 115 -90 341 -97 l195 -5 0 -305 0 -305 -195 -5 c-171 -5 -201 -8 -242
-27 -60 -27 -133 -101 -161 -161 -22 -46 -22 -58 -25 -554 l-3 -508 -3163 0
-3163 0 -5 88 c-6 104 -28 161 -88 226 -77 83 -193 118 -302 90 -63 -16 -108
-45 -161 -104 -82 -92 -78 -11 -75 -1265 l3 -1110 22 -48 c71 -153 264 -225
414 -154 120 57 180 154 187 300 l4 87 1454 0 c800 0 1454 -4 1454 -8 0 -4
-16 -55 -35 -113 -125 -369 -181 -775 -156 -1135 31 -441 117 -767 306 -1149
344 -698 976 -1252 1705 -1495 142 -48 353 -101 458 -115 17 -3 49 -7 70 -10
20 -3 51 -8 67 -10 91 -15 158 -17 560 -20 l440 -3 5 -509 c5 -496 6 -509 27
-555 37 -80 130 -157 211 -176 15 -3 335 -6 712 -6 l685 -1 55 26 c70 33 126
89 159 159 l26 55 3 503 3 502 22 1 c30 1 535 1 570 0 l27 -1 0 -488 c0 -537
1 -543 60 -626 39 -53 88 -90 156 -114 45 -17 100 -18 735 -18 l685 1 68 34
c70 36 106 73 147 151 l24 45 5 509 5 509 295 -1 c162 0 300 -1 307 -1 9 -1
13 -121 15 -508 3 -504 3 -508 26 -553 37 -75 78 -117 150 -152 l67 -33 696 0
696 0 69 35 c49 25 79 49 106 85 68 89 68 91 68 637 0 383 3 488 13 489 6 0
203 2 437 3 331 3 451 7 545 21 66 9 134 18 152 21 18 2 60 11 95 19 35 7 74
16 88 19 25 4 84 20 200 54 195 58 425 163 679 312 95 56 237 161 371 276 886
758 1243 1964 914 3091 -131 452 -387 888 -720 1229 -99 101 -245 232 -280
252 -10 6 -17 13 -14 16 3 2 509 7 1125 9 616 2 1136 6 1155 10 19 3 67 8 105
11 79 7 136 13 180 21 17 2 53 7 80 10 67 8 281 44 325 55 19 5 89 21 155 35
66 15 158 38 205 52 47 13 105 31 130 38 477 139 971 366 1410 649 355 229
664 481 956 778 92 94 265 282 301 327 2 2 3 -1035 3 -2305 l0 -2309 -53 60
c-406 466 -863 848 -1372 1149 -71 42 -141 84 -155 92 -133 78 -674 326 -742
339 -9 2 -25 8 -35 13 -17 9 -249 89 -283 97 -8 2 -40 11 -70 20 -78 23 -77
22 -165 46 -85 22 -106 27 -145 35 -14 2 -31 7 -39 10 -8 2 -30 7 -50 10 -20
3 -52 9 -71 14 -19 5 -51 11 -70 14 -19 3 -44 7 -55 9 -39 8 -90 17 -130 22
-22 4 -67 10 -100 15 -33 5 -94 12 -135 15 -41 4 -82 8 -90 10 -32 8 -273 19
-425 20 -155 0 -162 -1 -217 -28 -198 -97 -238 -366 -78 -511 51 -45 112 -74
172 -81 23 -2 117 -7 208 -10 91 -3 185 -7 210 -9 96 -9 204 -21 283 -31 104
-14 125 -17 162 -25 22 -5 60 -12 85 -15 140 -20 495 -114 685 -180 55 -20
107 -37 115 -39 75 -19 474 -201 645 -294 129 -71 160 -89 285 -168 658 -416
1202 -975 1600 -1644 51 -85 104 -168 118 -183 32 -34 106 -77 147 -86 61 -13
149 -5 202 18 66 29 143 110 169 176 19 49 19 117 19 3435 l0 3385 -22 47
c-66 143 -220 220 -365 183z m-14478 -2365 l0 -310 -310 0 -310 0 0 310 0 310
310 0 310 0 0 -310z m2500 0 l0 -310 -310 0 -310 0 0 310 0 310 310 0 310 0 0
-310z m2500 0 l0 -310 -310 0 -310 0 0 310 0 310 310 0 310 0 0 -310z m1535
-951 c11 -4 45 -10 75 -14 74 -9 259 -50 342 -76 37 -11 69 -20 70 -19 2 1 28
-9 58 -22 30 -14 58 -26 62 -27 35 -10 248 -111 313 -149 391 -225 752 -620
940 -1027 308 -667 295 -1419 -36 -2064 -263 -513 -688 -898 -1229 -1116 -108
-43 -159 -60 -285 -91 -33 -8 -76 -19 -95 -24 -124 -33 -254 -42 -682 -47
l-438 -5 0 316 0 316 338 1 c185 0 371 2 412 5 220 14 470 82 665 181 309 156
602 449 757 757 303 601 224 1327 -199 1847 -88 109 -262 269 -368 341 -151
100 -341 190 -485 229 -25 7 -49 14 -55 15 -26 7 -63 15 -95 20 -19 3 -40 7
-47 9 -12 4 -104 16 -158 20 -16 2 -3168 3 -7002 4 l-6973 1 0 315 0 315 7048
-3 c3876 -1 7056 -5 7067 -8z m-9765 -1255 c0 -4 -22 -36 -49 -73 -150 -205
-257 -454 -303 -710 -25 -138 -29 -410 -9 -536 92 -576 430 -1038 949 -1299
75 -38 225 -95 292 -112 138 -33 174 -40 260 -49 109 -12 184 -14 503 -14
l337 -1 0 -316 0 -316 -432 5 c-238 3 -444 8 -458 10 -14 3 -52 8 -85 12 -33
4 -69 9 -80 11 -11 2 -33 7 -50 10 -30 5 -96 21 -125 29 -8 2 -40 11 -70 20
-30 9 -62 17 -70 20 -8 2 -36 12 -62 24 -27 11 -48 18 -48 16 0 -11 -230 99
-344 165 -186 108 -319 211 -481 374 -689 691 -874 1713 -475 2619 l52 117
374 0 c206 0 374 -3 374 -6z m1980 -1079 l0 -1085 -357 1 c-319 1 -421 6 -512
25 -30 6 -31 6 -91 24 -25 7 -51 14 -58 16 -39 7 -209 103 -285 160 -515 389
-569 1159 -113 1619 119 120 240 198 397 257 159 59 223 65 642 67 l377 1 0
-1085z m2500 0 l0 -1085 -310 0 -309 0 -3 653 -3 652 -33 68 c-52 105 -143
166 -259 172 -72 5 -137 -14 -200 -57 -55 -37 -89 -83 -113 -152 -20 -54 -20
-94 -20 -1951 l0 -1895 -310 0 -310 0 0 2340 0 2340 935 0 935 0 0 -1085z
m2500 0 l0 -1085 -310 0 -309 0 -3 658 -3 657 -25 50 c-31 62 -94 125 -157
155 -65 32 -186 32 -255 2 -60 -27 -133 -99 -161 -160 l-22 -47 -3 -1912 -2
-1913 -310 0 -310 0 0 2340 0 2340 935 0 935 0 0 -1085z m2725 1065 c207 -44
355 -115 504 -243 374 -320 484 -857 265 -1301 -138 -279 -420 -508 -707 -571
-39 -8 -83 -18 -97 -22 -14 -3 -202 -8 -417 -10 l-393 -4 0 639 c0 511 -3 648
-14 684 -31 105 -125 192 -234 218 -139 33 -285 -40 -352 -175 l-25 -50 -3
-1912 -2 -1913 -310 0 -310 0 0 2340 0 2340 1003 0 c945 -1 1007 -2 1092 -20z
m-5225 -3095 l0 -315 -310 0 -310 0 0 315 0 315 310 0 310 0 0 -315z m2500 0
l0 -315 -310 0 -310 0 0 315 0 315 310 0 310 0 0 -315z"/>
</g>
</svg>
