<svg id="svg" version="1.1" xmlns="http://www.w3.org/2000/svg" xmlns:xlink="http://www.w3.org/1999/xlink" width="400" height="400" viewBox="0, 0, 400,400"><g id="svgg"><path id="path0" d="M177.000 138.018 C 175.900 138.430,174.514 138.774,173.921 138.783 C 170.991 138.829,163.112 142.023,158.690 144.958 C 142.237 155.879,142.194 185.123,158.618 193.871 C 161.372 195.338,169.985 198.282,175.800 199.744 C 183.457 201.669,185.022 202.018,188.621 202.603 C 206.984 205.589,213.578 209.767,213.131 218.133 C 212.613 227.809,203.777 232.194,186.400 231.398 C 176.205 230.931,172.135 228.716,168.196 221.494 C 165.569 216.678,165.915 216.813,156.154 216.806 C 146.175 216.799,146.000 216.873,146.000 221.154 C 146.000 235.980,161.466 249.134,180.880 250.820 C 183.366 251.036,186.030 251.426,186.800 251.687 C 188.509 252.266,193.790 252.241,195.307 251.648 C 195.915 251.410,198.075 251.021,200.107 250.783 C 217.924 248.702,230.439 238.792,232.852 224.854 C 233.105 223.394,233.557 221.502,233.856 220.650 C 234.507 218.793,234.566 215.287,233.971 213.726 C 233.735 213.107,233.266 211.250,232.927 209.600 C 230.874 199.586,220.449 190.585,208.365 188.394 C 205.149 187.810,200.316 186.565,197.498 185.594 C 196.233 185.157,194.835 184.800,194.394 184.800 C 190.537 184.800,173.461 179.161,170.659 176.961 C 164.045 171.770,165.899 161.657,174.216 157.562 L 176.770 156.305 184.685 156.206 C 199.109 156.025,204.861 158.439,207.545 165.800 C 209.630 171.517,210.551 172.113,217.643 172.334 C 227.448 172.639,229.200 171.902,229.200 167.471 C 229.200 154.399,216.995 142.189,200.584 138.842 C 198.393 138.396,195.971 137.843,195.203 137.615 C 192.652 136.858,179.311 137.153,177.000 138.018 M73.622 139.501 C 71.901 140.374,70.568 143.551,63.593 163.400 C 61.799 168.505,59.120 175.931,54.211 189.400 C 52.287 194.680,49.663 201.970,48.379 205.600 C 45.521 213.684,43.093 220.434,40.396 227.800 C 34.150 244.856,33.986 245.507,35.700 246.486 C 37.030 247.245,53.879 247.214,55.307 246.450 C 56.211 245.966,58.400 242.059,58.400 240.930 C 58.400 240.339,62.730 227.497,63.276 226.466 C 64.446 224.259,64.834 224.211,82.400 224.073 C 106.303 223.885,103.793 222.752,107.957 235.600 C 111.961 247.952,111.180 247.439,125.547 247.141 C 135.684 246.930,135.605 247.034,132.368 238.166 C 131.250 235.105,128.755 228.010,126.822 222.400 C 124.889 216.790,122.553 210.220,121.631 207.800 C 119.570 202.390,113.196 184.350,111.547 179.258 C 110.881 177.200,109.970 174.680,109.524 173.658 C 108.658 171.678,104.400 159.403,103.190 155.400 C 100.931 147.927,97.684 140.384,96.313 139.424 C 94.907 138.440,75.585 138.505,73.622 139.501 M250.362 139.550 L 249.400 140.329 249.296 192.578 L 249.191 244.828 250.177 245.814 C 251.551 247.187,267.203 247.373,268.856 246.036 L 269.800 245.271 270.018 205.336 C 270.137 183.371,270.383 164.995,270.564 164.500 C 271.511 161.910,273.038 164.605,274.587 171.600 C 275.196 174.350,275.963 177.680,276.291 179.000 C 276.619 180.320,277.218 182.930,277.623 184.800 C 278.028 186.670,278.825 190.180,279.394 192.600 C 279.964 195.020,280.779 198.620,281.206 200.600 C 281.632 202.580,282.526 206.538,283.191 209.396 C 283.856 212.253,284.400 215.066,284.400 215.645 C 284.400 216.225,284.666 217.454,284.991 218.375 C 285.599 220.098,287.742 228.705,288.185 231.200 C 288.563 233.334,290.020 239.478,290.859 242.474 C 292.075 246.820,292.022 246.800,302.494 246.800 L 311.280 246.800 312.594 245.486 C 313.585 244.495,314.021 243.587,314.372 241.786 C 315.201 237.524,316.480 231.859,317.212 229.200 C 317.606 227.770,318.057 225.792,318.215 224.805 C 318.373 223.818,318.761 222.288,319.078 221.405 C 319.395 220.522,319.908 218.360,320.219 216.600 C 321.111 211.549,322.350 206.041,322.771 205.254 C 322.983 204.857,323.433 202.928,323.770 200.967 C 324.581 196.257,326.615 187.211,327.813 182.992 C 328.126 181.887,328.635 179.727,328.944 178.192 C 329.738 174.242,332.580 166.400,333.218 166.400 C 334.083 166.400,334.216 170.894,334.400 206.335 L 334.600 244.870 335.722 245.835 C 337.492 247.357,353.093 247.343,354.618 245.818 L 355.600 244.836 355.600 193.198 C 355.600 137.313,355.690 139.639,353.516 139.056 C 351.957 138.639,326.539 138.767,325.404 139.198 C 324.118 139.688,322.983 142.104,322.157 146.112 C 321.830 147.700,321.305 149.900,320.991 151.000 C 320.676 152.100,320.128 154.440,319.772 156.200 C 319.416 157.960,318.878 160.601,318.577 162.069 C 318.276 163.537,317.663 165.826,317.215 167.156 C 316.767 168.486,316.403 170.075,316.406 170.687 C 316.414 172.010,315.025 178.383,313.965 181.888 C 313.552 183.257,313.110 185.147,312.983 186.088 C 312.689 188.281,311.306 194.759,310.530 197.581 C 310.200 198.780,309.691 201.030,309.397 202.581 C 305.694 222.156,303.216 223.476,299.222 208.000 C 298.342 204.590,297.077 199.735,296.411 197.212 C 295.745 194.688,295.200 192.220,295.200 191.727 C 295.200 191.233,294.845 189.878,294.410 188.715 C 293.586 186.508,291.247 177.757,289.194 169.200 C 288.534 166.450,287.648 162.940,287.225 161.400 C 285.562 155.344,285.099 153.675,284.172 150.400 C 283.643 148.530,282.919 145.767,282.564 144.260 C 282.141 142.465,281.530 141.086,280.792 140.260 L 279.666 139.000 265.495 138.886 C 251.955 138.776,251.281 138.806,250.362 139.550 M86.056 168.425 C 86.994 169.724,97.200 202.155,97.200 203.838 C 97.200 206.309,96.750 206.401,84.611 206.394 C 73.012 206.388,71.920 206.222,71.664 204.425 C 71.488 203.194,82.708 169.424,83.721 168.137 C 84.606 167.011,85.076 167.069,86.056 168.425 M396.434 387.753 L 395.469 389.000 396.613 387.912 C 397.243 387.314,397.677 386.753,397.579 386.665 C 397.480 386.577,396.965 387.067,396.434 387.753 " stroke="none" fill="#f8f8f9" fill-rule="evenodd"></path><path id="path1" d="M15.897 0.968 C 15.070 1.459,14.525 1.992,14.685 2.151 C 14.845 2.311,14.665 2.323,14.285 2.177 C 13.474 1.866,11.460 3.050,11.817 3.627 C 11.950 3.843,11.844 3.970,11.580 3.910 C 11.316 3.849,11.009 4.050,10.898 4.356 C 10.759 4.738,10.868 4.812,11.248 4.592 C 11.574 4.403,11.663 4.421,11.467 4.636 C 11.283 4.836,11.046 4.942,10.938 4.870 C 10.638 4.671,3.393 11.755,3.513 12.130 C 3.572 12.311,3.443 12.350,3.227 12.217 C 2.810 11.959,1.600 13.973,1.600 14.926 C 1.600 15.237,1.240 15.950,0.800 16.509 C -0.421 18.062,-0.471 381.810,0.750 383.538 C 1.163 384.122,1.623 385.166,1.773 385.859 C 1.923 386.551,2.426 387.451,2.891 387.859 C 3.453 388.351,3.626 388.398,3.405 388.000 C 3.207 387.643,3.219 387.535,3.436 387.733 C 3.636 387.917,3.808 388.187,3.818 388.333 C 3.842 388.682,11.318 396.158,11.667 396.182 C 11.813 396.192,12.083 396.364,12.267 396.564 C 12.464 396.780,12.371 396.795,12.038 396.602 C 11.657 396.381,11.570 396.427,11.767 396.746 C 11.927 397.005,13.377 397.843,14.990 398.608 L 17.923 400.000 200.140 400.000 L 382.358 400.000 384.123 399.061 C 385.095 398.545,386.292 398.017,386.785 397.888 C 387.277 397.759,387.574 397.482,387.445 397.272 C 387.315 397.062,387.522 396.645,387.904 396.345 C 388.534 395.852,388.548 395.867,388.051 396.500 C 387.698 396.950,387.661 397.200,387.946 397.200 C 388.190 397.200,388.824 396.525,389.354 395.700 C 390.404 394.068,393.344 391.151,395.664 389.440 C 396.469 388.846,397.432 387.694,397.803 386.880 C 398.175 386.066,398.821 384.668,399.240 383.774 C 400.274 381.562,400.455 18.560,399.424 16.532 C 399.107 15.910,398.479 14.553,398.030 13.517 C 397.580 12.482,396.804 11.417,396.306 11.152 C 394.938 10.423,390.423 5.994,389.384 4.362 C 388.863 3.543,387.807 2.634,386.934 2.252 C 386.090 1.882,384.734 1.225,383.921 0.790 C 382.454 0.006,380.952 0.000,199.921 0.038 L 17.400 0.075 15.897 0.968 M195.203 137.615 C 195.971 137.843,198.393 138.396,200.584 138.842 C 216.995 142.189,229.200 154.399,229.200 167.471 C 229.200 171.902,227.448 172.639,217.643 172.334 C 210.551 172.113,209.630 171.517,207.545 165.800 C 204.861 158.439,199.109 156.025,184.685 156.206 L 176.770 156.305 174.216 157.562 C 165.899 161.657,164.045 171.770,170.659 176.961 C 173.461 179.161,190.537 184.800,194.394 184.800 C 194.835 184.800,196.233 185.157,197.498 185.594 C 200.316 186.565,205.149 187.810,208.365 188.394 C 220.449 190.585,230.874 199.586,232.927 209.600 C 233.266 211.250,233.735 213.107,233.971 213.726 C 234.566 215.287,234.507 218.793,233.856 220.650 C 233.557 221.502,233.105 223.394,232.852 224.854 C 230.439 238.792,217.924 248.702,200.107 250.783 C 198.075 251.021,195.915 251.410,195.307 251.648 C 193.790 252.241,188.509 252.266,186.800 251.687 C 186.030 251.426,183.366 251.036,180.880 250.820 C 161.466 249.134,146.000 235.980,146.000 221.154 C 146.000 216.873,146.175 216.799,156.154 216.806 C 165.915 216.813,165.569 216.678,168.196 221.494 C 172.135 228.716,176.205 230.931,186.400 231.398 C 203.777 232.194,212.613 227.809,213.131 218.133 C 213.578 209.767,206.984 205.589,188.621 202.603 C 185.022 202.018,183.457 201.669,175.800 199.744 C 169.985 198.282,161.372 195.338,158.618 193.871 C 142.194 185.123,142.237 155.879,158.690 144.958 C 163.112 142.023,170.991 138.829,173.921 138.783 C 174.514 138.774,175.900 138.430,177.000 138.018 C 179.311 137.153,192.652 136.858,195.203 137.615 M96.313 139.424 C 97.684 140.384,100.931 147.927,103.190 155.400 C 104.400 159.403,108.658 171.678,109.524 173.658 C 109.970 174.680,110.881 177.200,111.547 179.258 C 113.196 184.350,119.570 202.390,121.631 207.800 C 122.553 210.220,124.889 216.790,126.822 222.400 C 128.755 228.010,131.250 235.105,132.368 238.166 C 135.605 247.034,135.684 246.930,125.547 247.141 C 111.180 247.439,111.961 247.952,107.957 235.600 C 103.793 222.752,106.303 223.885,82.400 224.073 C 64.834 224.211,64.446 224.259,63.276 226.466 C 62.730 227.497,58.400 240.339,58.400 240.930 C 58.400 242.059,56.211 245.966,55.307 246.450 C 53.879 247.214,37.030 247.245,35.700 246.486 C 33.986 245.507,34.150 244.856,40.396 227.800 C 43.093 220.434,45.521 213.684,48.379 205.600 C 49.663 201.970,52.287 194.680,54.211 189.400 C 59.120 175.931,61.799 168.505,63.593 163.400 C 70.568 143.551,71.901 140.374,73.622 139.501 C 75.585 138.505,94.907 138.440,96.313 139.424 M280.792 140.260 C 281.530 141.086,282.141 142.465,282.564 144.260 C 282.919 145.767,283.643 148.530,284.172 150.400 C 285.099 153.675,285.562 155.344,287.225 161.400 C 287.648 162.940,288.534 166.450,289.194 169.200 C 291.247 177.757,293.586 186.508,294.410 188.715 C 294.845 189.878,295.200 191.233,295.200 191.727 C 295.200 192.220,295.745 194.688,296.411 197.212 C 297.077 199.735,298.342 204.590,299.222 208.000 C 303.216 223.476,305.694 222.156,309.397 202.581 C 309.691 201.030,310.200 198.780,310.530 197.581 C 311.306 194.759,312.689 188.281,312.983 186.088 C 313.110 185.147,313.552 183.257,313.965 181.888 C 315.025 178.383,316.414 172.010,316.406 170.687 C 316.403 170.075,316.767 168.486,317.215 167.156 C 317.663 165.826,318.276 163.537,318.577 162.069 C 318.878 160.601,319.416 157.960,319.772 156.200 C 320.128 154.440,320.676 152.100,320.991 151.000 C 321.305 149.900,321.830 147.700,322.157 146.112 C 322.983 142.104,324.118 139.688,325.404 139.198 C 326.539 138.767,351.957 138.639,353.516 139.056 C 355.690 139.639,355.600 137.313,355.600 193.198 L 355.600 244.836 354.618 245.818 C 353.093 247.343,337.492 247.357,335.722 245.835 L 334.600 244.870 334.400 206.335 C 334.216 170.894,334.083 166.400,333.218 166.400 C 332.580 166.400,329.738 174.242,328.944 178.192 C 328.635 179.727,328.126 181.887,327.813 182.992 C 326.615 187.211,324.581 196.257,323.770 200.967 C 323.433 202.928,322.983 204.857,322.771 205.254 C 322.350 206.041,321.111 211.549,320.219 216.600 C 319.908 218.360,319.395 220.522,319.078 221.405 C 318.761 222.288,318.373 223.818,318.215 224.805 C 318.057 225.792,317.606 227.770,317.212 229.200 C 316.480 231.859,315.201 237.524,314.372 241.786 C 314.021 243.587,313.585 244.495,312.594 245.486 L 311.280 246.800 302.494 246.800 C 292.022 246.800,292.075 246.820,290.859 242.474 C 290.020 239.478,288.563 233.334,288.185 231.200 C 287.742 228.705,285.599 220.098,284.991 218.375 C 284.666 217.454,284.400 216.225,284.400 215.645 C 284.400 215.066,283.856 212.253,283.191 209.396 C 282.526 206.538,281.632 202.580,281.206 200.600 C 280.779 198.620,279.964 195.020,279.394 192.600 C 278.825 190.180,278.028 186.670,277.623 184.800 C 277.218 182.930,276.619 180.320,276.291 179.000 C 275.963 177.680,275.196 174.350,274.587 171.600 C 273.038 164.605,271.511 161.910,270.564 164.500 C 270.383 164.995,270.137 183.371,270.018 205.336 L 269.800 245.271 268.856 246.036 C 267.203 247.373,251.551 247.187,250.177 245.814 L 249.191 244.828 249.296 192.578 L 249.400 140.329 250.362 139.550 C 251.281 138.806,251.955 138.776,265.495 138.886 L 279.666 139.000 280.792 140.260 M83.721 168.137 C 82.708 169.424,71.488 203.194,71.664 204.425 C 71.920 206.222,73.012 206.388,84.611 206.394 C 96.750 206.401,97.200 206.309,97.200 203.838 C 97.200 202.155,86.994 169.724,86.056 168.425 C 85.076 167.069,84.606 167.011,83.721 168.137 M396.613 387.912 L 395.469 389.000 396.434 387.753 C 396.965 387.067,397.480 386.577,397.579 386.665 C 397.677 386.753,397.243 387.314,396.613 387.912 " stroke="none" fill="#24344c" fill-rule="evenodd"></path></g></svg>