<?xml version="1.0" standalone="no"?>
<!DOCTYPE svg PUBLIC "-//W3C//DTD SVG 20010904//EN"
 "http://www.w3.org/TR/2001/REC-SVG-20010904/DTD/svg10.dtd">
<svg version="1.0" xmlns="http://www.w3.org/2000/svg"
 width="813.000000pt" height="404.000000pt" viewBox="0 0 813.000000 404.000000"
 preserveAspectRatio="xMidYMid meet">

<g transform="translate(0.000000,404.000000) scale(0.100000,-0.100000)"
fill="#000000" stroke="none">
<path d="M0 2050 l0 -1990 415 0 415 0 0 1990 0 1990 -415 0 -415 0 0 -1990z"/>
<path d="M1510 3680 l0 -360 39 0 c22 0 71 -7 109 -15 323 -68 492 -268 492
-585 0 -353 -192 -546 -592 -595 l-48 -6 0 -356 0 -356 143 6 c626 26 1100
342 1273 850 89 263 92 630 7 902 -108 343 -365 614 -723 759 -158 65 -421
116 -592 116 l-108 0 0 -360z"/>
<path d="M2973 4028 c3 -7 361 -897 797 -1978 436 -1081 794 -1971 797 -1977
4 -10 101 -13 435 -13 405 0 430 1 424 18 -4 9 -358 905 -789 1989 l-782 1973
-444 0 c-351 0 -442 -3 -438 -12z"/>
<path d="M4653 4028 c6 -16 1779 -3962 1797 -4000 7 -16 18 -28 24 -28 6 0
371 894 810 1988 440 1093 806 2002 813 2020 l13 32 -461 -2 -462 -3 -353
-980 c-194 -539 -365 -1013 -380 -1054 -18 -48 -30 -69 -35 -60 -5 10 -835
2007 -866 2087 -4 9 -104 12 -455 12 -356 0 -449 -3 -445 -12z"/>
</g>
</svg>
