<?xml version="1.0" standalone="no"?>
<!DOCTYPE svg PUBLIC "-//W3C//DTD SVG 20010904//EN"
 "http://www.w3.org/TR/2001/REC-SVG-20010904/DTD/svg10.dtd">
<svg version="1.0" xmlns="http://www.w3.org/2000/svg"
 width="512.000000pt" height="512.000000pt" viewBox="0 0 512.000000 512.000000"
 preserveAspectRatio="xMidYMid meet">

<g transform="translate(0.000000,512.000000) scale(0.100000,-0.100000)"
fill="#000000" stroke="none">
<path d="M2470 5098 c-18 -13 -42 -41 -54 -62 -19 -38 -20 -56 -18 -335 0
-163 -1 -319 -4 -347 -5 -49 -7 -52 -37 -58 -18 -3 -54 -10 -82 -16 -27 -6
-72 -12 -100 -15 -27 -2 -71 -13 -97 -24 -44 -20 -45 -22 -35 -46 7 -14 20
-25 29 -25 23 0 68 -61 68 -92 0 -17 7 -27 19 -31 11 -2 31 -23 45 -45 14 -22
30 -43 36 -47 5 -3 10 -18 10 -33 0 -16 8 -32 19 -39 22 -13 101 -125 101
-142 0 -6 10 -21 23 -34 12 -12 34 -43 49 -68 53 -88 259 -414 267 -422 6 -6
85 -3 193 7 419 37 1135 64 1184 46 12 -5 30 -20 38 -33 14 -21 14 -33 -6
-132 -13 -70 -28 -117 -40 -130 -17 -19 -37 -20 -311 -27 -259 -6 -746 -38
-835 -54 l-32 -6 20 -32 c11 -17 25 -30 32 -29 82 14 773 52 940 53 137 0 138
0 154 -26 16 -24 16 -32 0 -139 -14 -85 -23 -118 -38 -132 -17 -15 -51 -18
-271 -25 -210 -7 -616 -33 -624 -41 -1 -2 8 -18 19 -36 l22 -33 80 6 c197 16
403 25 547 26 184 0 202 -7 201 -77 -1 -70 -32 -197 -53 -218 -20 -21 -4 -20
-582 -34 l-38 -1 27 -52 c32 -62 32 -63 79 -148 19 -35 35 -74 35 -86 0 -11 9
-29 21 -40 30 -27 59 -88 59 -123 0 -16 6 -31 15 -35 22 -8 55 -67 55 -98 0
-16 4 -28 10 -28 16 0 41 -47 42 -79 1 -38 -35 -81 -68 -81 -31 0 -64 45 -64
86 0 19 -4 34 -10 34 -19 0 -62 77 -58 107 2 20 -3 31 -16 38 -24 12 -66 90
-66 121 0 12 -7 24 -15 27 -14 6 -85 136 -85 157 0 6 -11 26 -24 43 -13 18
-36 56 -50 85 -24 48 -29 52 -62 52 l-36 0 56 -104 c31 -57 56 -113 56 -124 0
-11 7 -22 15 -25 19 -8 85 -140 85 -171 0 -13 7 -26 15 -29 19 -8 65 -100 65
-131 0 -13 7 -26 14 -29 22 -9 48 -65 48 -103 0 -23 5 -34 19 -37 21 -6 39
-45 39 -86 0 -32 -37 -71 -67 -71 -30 0 -63 46 -63 86 0 19 -4 34 -10 34 -20
0 -62 79 -58 109 3 22 0 31 -13 34 -20 5 -69 96 -69 128 0 11 -9 28 -19 37
-23 20 -81 128 -81 150 0 9 -8 25 -19 36 -10 12 -47 75 -81 141 -71 136 -79
148 -98 136 -11 -6 6 -45 72 -166 47 -87 86 -165 86 -173 0 -9 9 -25 20 -37
28 -30 80 -134 80 -161 0 -12 7 -24 15 -27 23 -9 67 -106 63 -138 -3 -20 0
-29 13 -32 27 -7 60 -67 56 -99 -2 -18 1 -28 10 -28 19 0 44 -44 45 -79 1 -38
-35 -81 -68 -81 -31 0 -64 45 -64 86 0 19 -4 34 -10 34 -19 0 -62 82 -58 111
3 20 0 29 -13 32 -21 6 -69 96 -69 129 0 13 -8 28 -19 35 -23 15 -81 125 -81
155 0 13 -8 28 -18 35 -10 6 -65 97 -121 202 l-103 190 -32 -6 c-17 -3 -32 -6
-33 -7 -1 -1 54 -102 123 -225 68 -123 124 -231 124 -241 0 -10 7 -23 16 -31
24 -20 74 -125 74 -156 0 -17 8 -33 20 -41 29 -18 73 -110 68 -143 -3 -20 0
-29 13 -32 44 -12 69 -108 34 -133 -52 -38 -131 8 -123 71 3 25 0 35 -13 38
-20 5 -79 112 -79 143 0 12 -6 24 -13 27 -15 5 -87 147 -87 170 0 8 -7 20 -15
27 -8 7 -28 35 -43 64 -16 28 -78 140 -138 249 l-109 198 -45 -7 c-360 -48
-888 -143 -1225 -221 -261 -60 -268 -61 -289 -32 -20 29 -21 17 -1 -21 9 -17
15 -33 15 -37 0 -19 12 -43 19 -39 7 5 44 -57 47 -79 3 -22 17 -45 28 -45 12
0 30 -25 59 -83 10 -22 21 -36 24 -33 3 3 12 -2 19 -12 11 -15 2 -28 -75 -107
-79 -80 -90 -96 -100 -143 -6 -29 -11 -58 -11 -63 0 -18 84 -119 100 -120 49
-3 109 5 135 17 17 8 66 50 109 93 l79 80 19 -25 c11 -13 23 -22 27 -19 9 5
67 -35 71 -50 4 -13 37 -36 47 -33 11 4 83 -42 83 -52 0 -5 17 -14 39 -20 21
-5 56 -22 77 -37 22 -14 50 -27 63 -29 31 -3 83 -25 99 -41 7 -7 25 -13 40
-13 37 0 114 -24 106 -33 -4 -4 1 -7 12 -8 72 -3 119 -10 156 -22 24 -8 59
-12 79 -10 l35 5 1 -364 c0 -397 -4 -367 56 -430 9 -10 17 -22 17 -28 0 -17
142 -12 167 5 12 9 28 14 34 13 7 -2 13 4 14 12 0 8 6 25 12 37 23 39 30 145
27 440 -2 213 1 294 9 301 14 11 86 23 171 28 32 2 63 8 70 13 17 14 197 70
190 59 -6 -9 47 11 91 34 104 56 209 118 258 150 31 21 61 37 66 34 5 -3 15 2
22 12 13 16 13 16 -6 2 -19 -14 -19 -14 -6 2 7 10 18 15 23 12 5 -3 20 4 33
16 20 19 27 21 40 10 8 -7 15 -9 15 -4 0 4 16 -7 35 -26 19 -18 32 -36 30 -40
-3 -4 4 -15 15 -25 11 -10 20 -15 20 -11 0 7 70 -42 81 -58 10 -13 103 3 138
25 17 10 40 33 50 50 24 39 37 123 22 141 -46 56 -62 78 -55 78 4 0 -1 9 -11
20 -10 11 -21 18 -25 15 -4 -2 -22 11 -40 30 -19 19 -30 35 -26 35 5 0 3 6 -3
14 -8 10 -6 19 10 39 11 15 18 31 15 36 -3 5 2 15 12 22 16 13 16 13 2 -6 -14
-19 -14 -19 2 -6 10 7 15 17 12 22 -3 5 13 35 34 66 21 32 58 94 82 138 24 44
49 87 56 95 15 19 57 123 46 116 -9 -5 33 136 54 179 8 17 17 54 19 83 7 103
17 162 29 171 6 5 130 8 301 7 293 -3 399 4 438 27 12 6 29 12 37 12 8 1 14 7
12 14 -1 6 4 22 13 34 17 25 22 167 5 167 -5 0 -18 8 -28 18 -63 59 -33 55
-430 55 l-364 1 5 35 c2 20 -2 58 -10 84 -8 27 -16 74 -19 105 -2 30 -8 58
-13 61 -11 7 -34 91 -27 98 2 3 -11 34 -29 71 -19 36 -31 70 -28 75 3 5 -3 21
-14 35 -30 41 -54 92 -49 101 3 5 -5 19 -17 32 -22 23 -38 49 -67 111 -7 15
-16 26 -19 23 -6 -3 -55 61 -57 74 -3 20 -18 41 -30 41 -26 0 -14 19 59 87
105 97 116 115 119 195 2 63 0 68 -27 90 -15 13 -38 28 -49 35 -12 7 -16 13
-11 14 6 0 -2 4 -17 9 -18 5 -47 3 -80 -5 -44 -12 -65 -27 -143 -105 l-92 -91
-27 35 c-15 20 -30 35 -34 35 -21 -3 -35 4 -67 37 -20 19 -45 37 -57 39 -25 5
-69 33 -84 53 -6 8 -20 16 -32 17 -28 2 -102 36 -97 45 2 4 -25 15 -62 24 -37
9 -74 23 -84 32 -9 8 -27 15 -40 16 -37 1 -103 19 -110 29 -3 5 -39 11 -79 14
-41 3 -79 10 -84 15 -6 6 -31 10 -57 10 l-46 0 1 367 1 367 -38 35 c-48 45
-60 49 -123 50 -37 1 -60 -5 -84 -21z"/>
<path d="M1838 4162 c-29 -13 -62 -31 -73 -41 -11 -10 -52 -36 -91 -59 -39
-23 -108 -68 -152 -101 -45 -33 -84 -56 -87 -51 -3 6 -4 10 -1 10 3 0 -2 8
-11 18 -10 11 -21 17 -24 16 -3 -2 -21 12 -39 31 -19 19 -31 35 -27 35 4 0 -1
8 -10 18 -10 11 -21 17 -25 15 -3 -1 -26 8 -50 22 -23 14 -55 25 -71 25 -63 0
-157 -94 -157 -157 0 -16 10 -48 22 -73 12 -25 21 -48 20 -51 -1 -4 8 -15 18
-24 11 -10 20 -14 20 -10 0 5 16 -6 35 -25 19 -18 32 -36 30 -40 -5 -7 34 -47
41 -42 17 10 6 -9 -46 -79 -33 -45 -79 -114 -102 -153 -22 -39 -48 -80 -58
-91 -21 -24 -70 -132 -63 -138 5 -6 -43 -151 -63 -189 -8 -16 -17 -52 -19 -80
-3 -29 -10 -78 -15 -108 -23 -117 -18 -108 -69 -114 -25 -3 -170 -4 -321 -3
-337 4 -382 -5 -431 -80 -38 -57 -15 -187 37 -207 8 -3 13 -10 9 -15 -13 -21
45 -24 466 -23 l296 0 -5 -45 c-3 -33 -2 -44 7 -39 7 5 11 -1 12 -16 1 -13 3
-50 5 -82 2 -33 8 -62 13 -65 11 -8 31 -78 31 -113 0 -15 6 -33 13 -40 8 -7
20 -31 27 -53 14 -41 16 -47 18 -76 1 -9 8 -19 16 -22 9 -4 12 0 10 11 -3 9
49 112 114 227 423 749 517 913 539 937 21 22 45 30 166 53 78 15 143 28 145
30 2 1 -11 24 -27 51 -17 26 -31 56 -31 66 0 10 -4 18 -9 18 -14 0 -101 128
-101 149 0 9 -20 39 -45 65 -32 34 -45 57 -45 77 0 19 -5 29 -14 29 -22 0 -66
63 -66 93 0 16 -6 27 -13 27 -8 0 -23 10 -35 23 -42 45 -18 127 37 127 35 0
71 -37 71 -73 0 -20 7 -30 24 -37 28 -10 66 -60 66 -87 0 -10 9 -24 19 -30 27
-17 81 -97 81 -120 0 -10 9 -24 20 -31 24 -15 90 -114 90 -135 0 -8 6 -17 13
-20 17 -6 342 -537 503 -819 48 -86 50 -87 87 -88 l39 0 -20 33 c-10 17 -84
140 -162 272 -145 242 -319 525 -371 602 -16 23 -29 50 -29 61 0 11 -6 22 -14
25 -23 9 -96 124 -96 151 0 16 -6 26 -15 26 -22 0 -84 90 -85 123 0 16 -5 27
-14 27 -21 0 -66 58 -66 86 0 14 -6 24 -14 24 -23 0 -56 50 -56 85 0 66 80 90
119 36 12 -16 21 -39 21 -50 0 -12 6 -21 14 -21 20 0 66 -65 66 -94 0 -16 6
-26 14 -26 18 0 86 -94 86 -119 0 -10 6 -21 13 -24 19 -7 107 -132 107 -150 0
-8 6 -17 13 -20 7 -2 51 -66 97 -141 76 -121 88 -136 113 -136 l27 0 -51 83
c-29 45 -74 116 -100 158 -27 42 -49 83 -49 91 0 9 -6 18 -14 21 -24 9 -97
128 -98 159 -1 20 -6 28 -19 28 -24 0 -79 84 -79 121 0 22 -5 29 -19 29 -26 0
-61 51 -61 89 0 24 -4 31 -19 31 -22 0 -61 49 -61 75 0 33 40 75 70 75 35 0
70 -40 70 -81 0 -18 5 -29 14 -29 23 0 66 -59 66 -90 0 -19 6 -29 19 -33 24
-6 90 -95 91 -122 0 -11 9 -26 19 -32 22 -14 101 -126 101 -143 0 -7 9 -19 19
-28 24 -21 215 -323 358 -568 l108 -183 39 -1 c37 0 38 1 24 23 -8 12 -30 49
-50 82 -102 170 -253 417 -340 553 -54 85 -98 162 -98 172 0 10 -6 20 -14 23
-21 8 -106 135 -106 159 0 11 -11 29 -24 39 -33 26 -68 85 -68 115 0 13 -6 24
-14 24 -18 0 -74 71 -74 93 0 11 -11 28 -25 39 -14 11 -25 27 -25 36 0 24 -38
22 -102 -6z"/>
<path d="M3535 3133 c-304 -14 -588 -34 -702 -49 l-43 -5 16 -31 16 -31 71 7
c402 36 650 52 930 60 82 2 150 6 152 8 1 1 6 13 9 26 l7 22 -198 -2 c-109 -1
-225 -3 -258 -5z"/>
<path d="M2384 3024 c7 -19 234 -396 246 -407 4 -5 110 1 236 12 447 41 592
51 817 58 173 5 227 9 227 19 0 7 3 20 7 29 6 16 -7 17 -173 11 -212 -9 -519
-29 -843 -57 -201 -17 -236 -18 -255 -6 -17 12 -75 104 -205 329 -18 31 -68
41 -57 12z"/>
<path d="M1975 2975 c-5 -2 -65 -13 -132 -26 l-122 -22 -140 -246 c-76 -135
-195 -345 -263 -466 -69 -121 -130 -229 -136 -241 l-11 -21 77 18 c71 17 304
65 497 103 512 99 1194 184 1670 207 406 19 420 21 423 47 3 21 0 22 -55 22
-105 0 -475 -20 -663 -36 -158 -13 -271 -24 -595 -61 -40 -4 -55 -1 -72 13
-12 11 -89 134 -171 274 -264 451 -264 451 -307 435z"/>
<path d="M2900 2494 c0 -3 8 -19 17 -35 17 -28 36 -35 67 -23 14 5 14 9 -1 35
-14 23 -25 29 -50 29 -18 0 -33 -3 -33 -6z"/>
<path d="M2721 2481 c-11 -7 -10 -14 5 -40 17 -28 54 -44 54 -22 0 12 -33 71
-40 71 -3 0 -11 -4 -19 -9z"/>
</g>
</svg>
