<?xml version="1.0" standalone="no"?>
<!DOCTYPE svg PUBLIC "-//W3C//DTD SVG 20010904//EN"
 "http://www.w3.org/TR/2001/REC-SVG-20010904/DTD/svg10.dtd">
<svg version="1.0" xmlns="http://www.w3.org/2000/svg"
 width="512.000000pt" height="512.000000pt" viewBox="0 0 512.000000 512.000000"
 preserveAspectRatio="xMidYMid meet">

<g transform="translate(0.000000,512.000000) scale(0.100000,-0.100000)"
fill="#ffffff" stroke="none">
<path d="M2470 5098 c-18 -13 -42 -41 -54 -62 -19 -38 -20 -56 -18 -335 0
-163 -1 -319 -4 -347 l-5 -50 -87 -18 c-48 -9 -108 -19 -135 -21 -26 -2 -56
-9 -67 -15 -34 -18 -192 -72 -197 -67 -7 7 -111 -40 -142 -64 -14 -11 -66 -45
-116 -75 -49 -31 -116 -75 -147 -100 -32 -25 -59 -40 -63 -34 -3 5 -4 10 -1
10 3 0 -2 8 -11 18 -10 11 -21 17 -24 16 -3 -2 -21 12 -39 31 -19 19 -31 35
-27 35 4 0 -1 8 -10 18 -10 11 -21 17 -25 15 -3 -1 -26 8 -50 22 -23 14 -55
25 -71 25 -63 0 -157 -94 -157 -157 0 -16 10 -48 22 -73 12 -25 21 -48 20 -51
-1 -4 8 -15 18 -24 11 -10 20 -14 20 -10 0 5 16 -6 35 -25 19 -18 32 -36 30
-40 -5 -7 34 -47 41 -42 17 11 7 -8 -39 -68 -29 -38 -75 -107 -101 -152 -27
-46 -57 -92 -66 -103 -21 -24 -70 -132 -63 -138 5 -6 -43 -151 -63 -189 -8
-15 -17 -49 -19 -75 -2 -26 -12 -87 -21 -135 l-18 -87 -45 -5 c-25 -3 -170 -4
-321 -3 -337 4 -382 -5 -431 -80 -38 -57 -15 -187 37 -207 8 -3 13 -10 9 -15
-12 -21 34 -23 465 -25 l295 -1 -3 -38 c-2 -21 1 -44 8 -52 6 -7 13 -44 16
-81 3 -38 8 -71 12 -74 10 -7 32 -81 32 -108 0 -11 11 -42 24 -69 13 -26 27
-65 30 -85 4 -21 11 -38 15 -38 7 0 45 -74 46 -90 2 -19 18 -50 25 -50 11 0
51 -75 45 -82 -3 -2 11 -21 30 -41 19 -20 43 -53 54 -74 11 -21 29 -44 41 -51
22 -13 20 -16 -68 -105 -80 -82 -91 -98 -101 -145 -6 -29 -11 -58 -11 -63 0
-18 84 -119 100 -120 49 -3 109 5 135 17 17 8 66 50 109 93 l79 80 19 -24 c11
-14 22 -24 26 -22 10 3 83 -49 77 -55 -3 -2 7 -11 23 -18 15 -7 42 -20 61 -29
18 -9 35 -22 38 -28 3 -7 22 -17 42 -23 21 -5 58 -24 84 -41 25 -17 50 -28 54
-26 5 3 31 -6 58 -19 28 -14 79 -32 114 -40 36 -7 67 -18 71 -24 3 -5 33 -12
66 -15 32 -3 75 -11 94 -17 19 -6 55 -12 80 -12 l45 -1 1 -361 c1 -392 -3
-363 57 -426 9 -10 17 -22 17 -28 0 -17 142 -12 167 5 12 9 28 14 34 13 7 -2
13 4 14 12 0 8 6 25 12 37 23 39 30 145 27 440 -2 213 1 294 9 301 12 9 82 20
181 28 27 2 54 8 60 13 13 11 150 52 188 57 14 2 47 14 72 26 100 51 243 132
299 170 33 22 56 34 51 27 -4 -8 13 3 39 24 39 32 50 37 62 27 8 -7 15 -9 15
-4 0 4 16 -7 35 -26 19 -18 32 -36 30 -40 -3 -4 4 -15 15 -25 11 -10 20 -15
20 -11 0 7 70 -42 81 -58 10 -13 103 3 138 25 17 10 40 33 50 50 24 39 37 123
22 141 -46 56 -62 78 -55 78 4 0 -1 9 -11 20 -10 11 -21 18 -25 15 -4 -2 -22
11 -40 30 -19 19 -30 35 -26 35 5 0 3 6 -3 14 -8 10 -3 24 26 61 20 27 31 45
23 40 -7 -4 6 19 28 52 39 57 121 202 170 298 12 25 24 57 26 73 5 38 46 175
57 188 5 6 11 33 13 60 8 99 19 169 28 181 7 8 88 11 301 9 295 -3 401 4 440
27 12 6 29 12 37 12 8 1 14 7 12 14 -1 6 4 22 13 34 17 25 22 167 5 167 -5 0
-18 8 -28 18 -63 59 -34 55 -426 56 l-361 1 -1 45 c0 25 -6 61 -12 80 -6 19
-14 62 -17 94 -3 33 -9 62 -14 65 -11 7 -34 91 -27 98 2 3 -11 34 -29 71 -19
36 -31 70 -28 75 3 5 -3 21 -14 35 -30 41 -54 92 -49 101 3 5 -5 19 -17 32
-22 23 -38 48 -67 111 -8 16 -16 26 -18 23 -5 -4 -55 61 -58 75 -4 21 -18 40
-30 40 -26 0 -14 19 59 87 105 97 116 115 119 195 2 63 0 68 -27 90 -15 13
-38 28 -49 35 -12 7 -16 13 -11 14 6 0 -2 4 -17 9 -18 5 -47 3 -80 -5 -44 -12
-65 -27 -143 -105 l-92 -91 -27 35 c-15 20 -30 35 -34 35 -21 -3 -35 4 -67 37
-20 19 -45 37 -57 39 -25 5 -69 33 -84 53 -6 8 -20 16 -32 17 -28 2 -102 36
-97 45 2 4 -25 15 -62 24 -37 9 -74 23 -84 32 -9 8 -27 15 -40 16 -37 1 -103
19 -110 29 -3 5 -39 11 -79 14 -41 3 -79 10 -84 15 -6 6 -31 10 -57 10 l-46 0
1 367 1 367 -38 35 c-48 45 -60 49 -123 50 -37 1 -60 -5 -84 -21z"/>
</g>
<g transform="translate(0.000000,512.000000) scale(0.100000,-0.100000)"
fill="#000000" stroke="none">
<path d="M1969 4216 c-35 -17 -37 -60 -5 -82 14 -9 26 -24 26 -34 0 -24 57
-100 75 -100 10 0 15 -10 15 -27 1 -32 63 -123 84 -123 9 0 12 -7 9 -20 -6
-21 80 -158 105 -167 6 -3 12 -13 12 -22 0 -9 15 -39 33 -66 56 -82 182 -286
330 -530 l139 -230 -34 -6 c-18 -3 -38 0 -44 5 -6 6 -46 72 -89 146 -120 206
-365 594 -381 603 -8 4 -14 13 -14 20 0 18 -89 147 -106 154 -8 3 -14 13 -14
22 0 25 -69 123 -91 128 -12 4 -19 14 -19 31 0 29 -44 92 -66 92 -9 0 -14 10
-14 29 0 33 -40 81 -69 81 -22 0 -57 -33 -67 -62 -7 -24 26 -78 53 -84 16 -4
23 -14 23 -31 0 -35 31 -83 57 -89 16 -5 23 -14 23 -31 0 -34 50 -111 76 -119
14 -4 22 -14 22 -30 0 -27 76 -149 98 -158 8 -3 14 -12 14 -20 0 -8 40 -77 88
-153 123 -191 119 -183 84 -183 -25 0 -37 13 -112 133 -46 72 -90 136 -97 140
-7 4 -13 13 -13 19 0 19 -81 138 -101 149 -11 5 -19 17 -19 26 0 27 -69 123
-90 123 -13 0 -17 5 -13 20 7 26 -35 89 -64 96 -13 4 -20 11 -17 19 12 32 -36
85 -76 85 -34 0 -60 -31 -60 -71 0 -26 40 -79 60 -79 5 0 10 -10 10 -22 0 -26
46 -88 66 -88 8 0 14 -10 14 -25 0 -29 66 -125 86 -125 8 0 14 -10 14 -23 0
-24 84 -157 100 -157 6 0 10 -7 10 -16 0 -9 50 -94 110 -190 108 -170 422
-690 454 -752 l17 -32 -39 0 c-36 0 -39 3 -77 68 -166 288 -494 825 -506 830
-4 2 -20 28 -36 59 -15 31 -43 72 -60 91 -18 19 -33 39 -33 45 0 18 -62 107
-81 118 -11 5 -19 18 -19 27 0 28 -49 92 -70 92 -15 0 -20 7 -20 29 0 37 -35
81 -65 81 -31 0 -65 -37 -65 -71 0 -30 34 -79 56 -79 8 0 14 -10 14 -21 0 -30
37 -87 60 -94 12 -4 20 -15 20 -29 0 -27 65 -116 85 -116 8 0 11 -7 8 -20 -5
-21 79 -160 97 -160 6 0 10 -7 10 -15 0 -9 15 -40 34 -69 l34 -53 -149 -28
c-114 -22 -153 -33 -168 -49 -10 -12 -162 -273 -336 -581 -220 -387 -318 -569
-317 -588 1 -29 34 -67 57 -67 7 0 77 16 156 35 306 73 900 183 1244 230 105
15 120 15 130 2 6 -8 62 -109 124 -224 62 -114 126 -227 142 -251 16 -23 29
-47 29 -52 0 -23 76 -161 91 -165 11 -4 15 -13 12 -24 -7 -26 54 -142 78 -148
14 -4 18 -11 13 -25 -9 -31 15 -75 48 -89 42 -17 82 4 86 46 3 35 -31 95 -53
95 -11 0 -14 6 -10 23 7 28 -39 133 -66 150 -10 6 -19 22 -19 35 0 18 -34 92
-79 172 -4 8 -23 44 -41 80 -19 36 -76 141 -127 234 -52 93 -92 170 -91 171 2
2 18 5 37 7 l33 3 104 -190 c57 -104 111 -195 119 -201 8 -6 15 -19 15 -28 0
-25 69 -156 85 -163 8 -3 15 -16 15 -28 0 -35 50 -127 71 -132 14 -4 17 -11
13 -29 -7 -27 31 -101 56 -109 12 -4 16 -13 13 -29 -6 -31 21 -83 48 -91 25
-8 68 19 79 50 10 27 -17 93 -41 100 -14 5 -18 12 -14 25 8 24 -31 101 -54
107 -13 3 -17 11 -13 29 5 29 -45 132 -69 139 -11 4 -15 13 -12 24 5 20 -56
150 -81 170 -9 8 -16 20 -16 28 0 8 -39 86 -86 172 -47 86 -86 160 -87 166 -1
5 7 11 18 13 16 2 26 -8 43 -40 71 -139 124 -234 137 -244 8 -6 15 -19 15 -28
0 -24 57 -134 80 -154 11 -9 20 -26 20 -37 0 -31 51 -124 72 -130 13 -5 16
-13 12 -30 -6 -25 15 -74 45 -102 10 -10 21 -36 24 -58 6 -40 36 -75 64 -75
23 0 63 47 63 74 0 36 -20 75 -42 81 -12 4 -18 16 -18 35 0 38 -29 98 -51 105
-11 4 -15 12 -12 25 7 25 -46 132 -68 137 -10 3 -15 11 -12 23 5 20 -62 161
-83 173 -8 4 -14 16 -14 26 0 10 -25 64 -56 120 -30 57 -54 104 -52 106 2 1
17 5 35 8 32 6 33 5 74 -73 23 -44 45 -80 50 -80 5 0 9 -8 9 -18 0 -23 69
-154 87 -165 7 -4 13 -17 13 -28 0 -32 50 -121 71 -126 14 -4 17 -11 13 -29
-7 -27 31 -101 56 -109 12 -4 16 -13 13 -29 -6 -31 21 -83 48 -91 29 -10 73
24 77 60 5 36 -15 83 -38 90 -11 4 -16 12 -13 24 6 25 -34 102 -56 108 -12 3
-17 12 -14 27 5 27 -41 124 -62 133 -8 3 -15 16 -15 29 0 23 -67 156 -82 162
-4 2 -8 10 -8 18 0 8 -11 37 -25 64 l-25 50 22 0 c13 0 146 5 297 10 205 8
280 14 296 24 33 22 70 228 47 262 -28 42 -175 44 -727 8 l-100 -6 -17 36
c-10 20 -14 36 -10 36 4 0 48 5 97 10 90 9 651 40 732 40 64 0 77 18 97 143
18 108 14 138 -18 159 -30 21 -712 -10 -1052 -47 -38 -4 -42 -2 -57 30 -16 34
-16 35 6 40 73 15 553 46 950 61 115 4 193 11 203 18 15 12 54 170 56 228 1
15 -7 37 -18 49 -19 21 -21 21 -364 16 -323 -5 -684 -25 -880 -47 -164 -19
-159 -20 -209 63 -129 210 -266 423 -278 430 -7 4 -13 13 -13 20 0 21 -91 149
-110 154 -12 3 -16 11 -13 24 6 23 -61 126 -89 134 -10 4 -18 16 -18 27 0 31
-38 87 -64 94 -12 3 -26 15 -31 26 -13 28 -47 39 -76 24z m2021 -1088 c-1 -39
-12 -41 -257 -49 -242 -8 -571 -30 -789 -52 l-121 -13 -17 30 c-18 30 -10 45
23 46 7 0 138 9 290 20 328 24 371 25 654 28 168 2 217 -1 217 -10z m-1462
-260 c56 -95 111 -179 122 -186 16 -10 52 -9 187 3 368 33 540 45 800 57 150
6 275 9 278 6 3 -3 3 -17 -1 -32 l-6 -26 -117 0 c-149 0 -512 -24 -850 -55
-145 -14 -276 -25 -290 -25 -23 0 -38 21 -131 177 -58 97 -115 194 -128 215
l-23 38 29 0 c27 0 36 -12 130 -172z m-356 -136 c81 -136 175 -295 208 -355
34 -59 71 -112 82 -118 13 -7 40 -9 67 -5 313 44 976 96 1229 96 80 0 82 -1
82 -24 0 -31 -15 -33 -280 -40 -622 -17 -1550 -143 -2308 -315 -57 -13 -82
-15 -79 -8 3 7 126 226 275 487 l269 475 129 27 c71 15 140 27 154 27 22 0 42
-28 172 -247z m815 -262 l21 -40 -39 0 c-33 0 -41 5 -54 30 -19 36 -19 38 3
43 38 10 48 5 69 -33z m-217 -20 l20 -40 -24 0 c-17 0 -30 10 -44 34 -22 37
-20 46 9 46 12 0 27 -16 39 -40z"/>
</g>
</svg>
