<?xml version="1.0" standalone="no"?>
<!DOCTYPE svg PUBLIC "-//W3C//DTD SVG 20010904//EN"
 "http://www.w3.org/TR/2001/REC-SVG-20010904/DTD/svg10.dtd">
<svg version="1.0" xmlns="http://www.w3.org/2000/svg"
 width="256.000000pt" height="256.000000pt" viewBox="0 0 256.000000 256.000000"
 preserveAspectRatio="xMidYMid meet">

<g transform="translate(0.000000,256.000000) scale(0.100000,-0.100000)"
fill="#2e221c" stroke="none">
<path d="M2115 2243 l-280 -124 -79 31 c-283 112 -628 108 -934 -10 l-79 -30
-149 64 c-82 35 -207 89 -278 120 -71 31 -130 55 -132 53 -2 -2 40 -169 93
-373 l96 -369 -21 -125 c-11 -69 -35 -210 -53 -313 -28 -162 -31 -190 -19
-198 8 -4 146 -94 305 -198 160 -104 292 -185 294 -179 1 5 -10 90 -25 189
-24 155 -26 182 -14 189 8 5 18 6 22 2 7 -7 31 -147 106 -622 l28 -175 62 -3
62 -3 0 84 c0 97 0 97 86 97 l54 0 0 306 0 305 23 -3 22 -3 -4 -302 -4 -302
69 -3 69 -3 3 -82 3 -83 59 0 c47 0 60 3 64 18 3 9 32 181 66 382 33 201 63
373 66 383 6 19 44 24 44 5 0 -7 -14 -92 -31 -191 -17 -98 -28 -181 -26 -183
3 -3 85 48 183 112 99 64 236 155 307 200 70 46 127 90 127 98 0 15 -59 383
-84 522 -17 91 -20 69 59 359 112 411 126 466 123 474 -2 4 -129 -48 -283
-116z m135 -68 c0 -16 -98 -376 -104 -382 -7 -7 -36 10 -36 21 0 6 18 74 39
151 21 77 37 141 36 143 -1 1 -55 -23 -120 -53 -114 -54 -145 -61 -145 -32 0
11 295 163 323 166 4 1 7 -6 7 -14z m-1750 -72 c173 -79 173 -79 160 -104 -9
-17 -19 -14 -130 38 -66 31 -122 54 -125 52 -2 -3 13 -71 35 -151 21 -81 36
-149 32 -152 -8 -9 -42 -7 -42 2 0 4 -22 91 -49 195 -29 114 -44 187 -37 187
6 0 76 -30 156 -67z m1090 -108 c51 -52 53 -56 37 -72 -16 -16 -19 -15 -57 22
l-40 39 -40 -39 -40 -39 -40 39 -40 39 -38 -37 c-21 -20 -41 -37 -45 -37 -4 0
-22 17 -41 38 l-35 37 -38 -37 c-21 -21 -43 -38 -48 -38 -5 0 -25 16 -45 35
l-36 35 -34 -35 c-37 -38 -57 -44 -67 -19 -6 16 81 114 102 114 6 0 26 -16 45
-35 l34 -35 36 35 c20 19 40 35 46 35 6 0 25 -16 44 -35 l34 -35 36 35 c20 19
40 35 46 35 6 0 23 -13 39 -30 16 -16 35 -30 42 -30 7 0 27 16 44 35 18 19 35
35 38 35 4 0 31 -25 61 -55z m-52 -286 c2 -11 -31 -31 -122 -72 -69 -32 -129
-57 -133 -57 -5 0 -60 20 -123 44 -93 35 -116 47 -118 65 -5 29 5 27 131 -20
l109 -41 112 50 c115 53 139 58 144 31z m106 -126 c4 -9 1 -20 -6 -25 -18 -11
-342 -138 -354 -138 -5 0 -87 26 -181 57 -133 45 -173 62 -173 75 0 9 4 19 8
22 5 3 80 -20 168 -49 87 -30 166 -55 175 -55 9 0 88 29 175 65 88 35 164 64
170 65 7 0 15 -8 18 -17z m216 -133 c9 -17 6 -21 -20 -32 -30 -12 -31 -16 -34
-78 -4 -103 -62 -188 -155 -228 -48 -20 -136 -19 -189 3 -46 19 -115 89 -130
134 -10 28 -8 30 31 45 23 8 123 45 222 81 99 36 196 72 215 80 46 18 48 18
60 -5z m-889 -76 c134 -47 250 -87 257 -90 30 -9 -29 -109 -87 -147 -102 -67
-223 -59 -306 21 -52 51 -75 104 -75 178 0 55 -2 62 -25 72 -24 11 -32 31 -18
45 3 4 7 7 8 7 1 0 112 -39 246 -86z m1199 -169 c7 -9 10 -18 6 -22 -3 -4 -61
-43 -129 -87 l-122 -81 -10 -75 c-9 -66 -13 -75 -33 -78 -26 -4 -26 0 -9 108
l12 74 130 87 c72 48 133 88 136 88 4 1 12 -6 19 -14z m-1502 -163 c16 -10 37
-171 23 -185 -19 -19 -41 1 -42 40 -1 101 -5 106 -124 183 -135 87 -142 94
-126 114 11 13 29 4 134 -65 67 -44 128 -83 135 -87z"/>
<path d="M1714 1374 c-35 -13 -43 -20 -48 -48 -4 -19 -18 -46 -33 -60 -34 -34
-98 -36 -137 -5 -25 20 -31 21 -67 9 -21 -7 -39 -19 -39 -27 0 -38 106 -102
171 -103 52 0 132 44 165 91 21 30 29 56 32 100 2 32 3 59 1 58 -2 0 -23 -7
-45 -15z"/>
<path d="M1573 1322 c-55 -23 -61 -30 -29 -38 30 -7 76 18 76 41 0 8 -1 15 -2
14 -2 0 -22 -8 -45 -17z"/>
<path d="M804 1365 c-12 -30 7 -104 37 -145 73 -101 232 -106 312 -10 31 36
28 42 -21 58 -28 10 -37 8 -69 -13 -41 -29 -72 -31 -113 -10 -34 17 -50 43
-50 78 0 20 -9 28 -40 41 -49 20 -49 20 -56 1z"/>
<path d="M951 1309 c17 -26 65 -37 82 -20 10 10 -13 23 -71 38 -26 6 -26 6
-11 -18z"/>
<path d="M1170 235 l0 -66 108 3 107 3 3 63 3 62 -111 0 -110 0 0 -65z"/>
</g>
</svg>
