<svg id="svg" version="1.1" xmlns="http://www.w3.org/2000/svg" xmlns:xlink="http://www.w3.org/1999/xlink" width="400" height="400" viewBox="0, 0, 400,400"><g id="svgg"><path id="path0" d="M381.098 13.666 C 380.476 13.893,380.110 14.255,380.259 14.496 C 380.416 14.750,380.335 14.807,380.058 14.636 C 379.451 14.261,377.921 14.749,378.215 15.224 C 378.340 15.426,378.195 15.496,377.893 15.380 C 377.592 15.265,375.737 15.913,373.772 16.822 C 371.808 17.730,369.390 18.802,368.400 19.203 C 367.410 19.604,364.170 21.095,361.200 22.517 C 358.230 23.939,355.350 25.238,354.800 25.403 C 354.250 25.569,352.741 26.236,351.446 26.885 C 350.151 27.535,346.641 29.108,343.646 30.381 C 336.383 33.469,335.992 33.663,336.233 34.054 C 336.348 34.239,336.189 34.294,335.881 34.176 C 335.120 33.884,320.376 40.437,320.681 40.931 C 320.815 41.147,320.728 41.203,320.489 41.055 C 319.971 40.735,316.268 42.193,308.400 45.817 C 305.210 47.286,301.250 49.071,299.600 49.784 C 292.739 52.748,290.826 53.718,291.069 54.112 C 291.212 54.343,291.129 54.403,290.879 54.249 C 290.635 54.098,289.775 54.250,288.969 54.587 C 287.003 55.409,285.638 55.359,283.363 54.384 C 282.316 53.935,281.212 53.663,280.909 53.780 C 280.606 53.896,280.453 53.838,280.569 53.651 C 280.952 53.031,268.312 48.195,267.312 48.578 C 267.008 48.695,266.863 48.621,266.991 48.414 C 267.276 47.954,264.145 47.059,263.337 47.369 C 262.971 47.509,262.863 47.422,263.042 47.132 C 263.234 46.821,263.049 46.746,262.462 46.900 C 261.987 47.024,261.692 46.975,261.805 46.792 C 262.077 46.352,257.747 45.462,257.144 45.835 C 256.872 46.002,256.783 45.951,256.931 45.712 C 257.257 45.183,253.907 44.227,252.770 44.524 C 252.303 44.646,252.030 44.636,252.164 44.503 C 252.548 44.119,249.663 43.233,246.600 42.795 C 245.060 42.575,242.720 42.136,241.400 41.819 C 240.080 41.503,237.264 41.189,235.141 41.122 C 233.019 41.055,231.356 40.878,231.446 40.730 C 231.819 40.115,227.133 39.529,222.900 39.660 C 220.366 39.739,218.399 39.641,218.400 39.437 C 218.400 38.908,183.917 39.442,181.297 40.011 C 180.141 40.262,179.273 40.595,179.369 40.750 C 179.465 40.906,178.902 40.958,178.117 40.866 C 177.333 40.775,176.788 40.857,176.908 41.050 C 177.027 41.242,176.258 41.339,175.200 41.264 C 173.142 41.118,168.681 41.879,168.952 42.329 C 169.041 42.478,167.783 42.627,166.155 42.660 C 163.105 42.723,159.082 43.480,159.358 43.940 C 159.444 44.083,158.580 44.238,157.438 44.284 C 154.977 44.383,147.085 46.378,138.200 49.148 C 129.075 51.993,128.808 52.089,129.036 52.458 C 129.149 52.641,128.959 52.682,128.614 52.550 C 127.841 52.254,125.528 53.160,125.826 53.642 C 125.944 53.834,125.788 53.893,125.478 53.774 C 124.836 53.528,119.519 55.545,119.764 55.942 C 119.852 56.084,119.536 56.234,119.062 56.276 C 118.588 56.319,117.622 56.473,116.917 56.619 C 115.600 56.893,113.102 55.992,105.536 52.516 C 103.768 51.703,102.262 51.238,101.974 51.416 C 101.684 51.595,101.578 51.560,101.720 51.330 C 102.044 50.805,84.995 43.432,84.362 43.823 C 84.071 44.003,83.980 43.956,84.134 43.707 C 84.465 43.171,80.213 41.421,79.561 41.824 C 79.264 42.008,79.180 41.956,79.344 41.691 C 79.668 41.166,78.196 40.632,77.542 41.036 C 77.269 41.205,77.184 41.150,77.336 40.904 C 77.651 40.393,74.531 39.072,73.912 39.454 C 73.669 39.605,73.590 39.540,73.733 39.308 C 74.062 38.776,71.807 37.825,71.162 38.223 C 70.870 38.404,70.780 38.356,70.936 38.104 C 71.251 37.593,68.131 36.272,67.512 36.654 C 67.269 36.805,67.190 36.740,67.333 36.509 C 67.482 36.268,66.377 35.590,64.695 34.891 C 63.103 34.229,57.573 31.864,52.407 29.636 C 47.240 27.409,42.776 25.677,42.486 25.788 C 42.196 25.900,42.056 25.834,42.174 25.642 C 42.474 25.157,40.159 24.254,39.562 24.623 C 39.283 24.796,39.180 24.757,39.319 24.531 C 39.631 24.026,32.134 20.670,31.530 21.043 C 31.270 21.204,31.186 21.146,31.333 20.908 C 31.662 20.376,29.407 19.425,28.762 19.823 C 28.475 20.001,28.380 19.956,28.530 19.714 C 29.039 18.889,22.836 16.660,19.600 16.504 C 16.109 16.336,13.734 17.340,14.121 18.820 C 14.233 19.250,14.183 19.513,14.008 19.405 C 13.552 19.123,13.210 20.685,13.219 23.000 C 13.229 25.367,14.923 32.130,15.398 31.699 C 15.580 31.535,15.611 31.605,15.468 31.856 C 15.121 32.462,17.038 40.146,17.581 40.327 C 17.814 40.405,17.902 40.636,17.775 40.840 C 17.444 41.377,18.395 45.650,18.792 45.405 C 18.975 45.292,19.031 45.559,18.916 45.999 C 18.801 46.440,18.863 46.801,19.053 46.802 C 19.244 46.804,19.429 47.479,19.464 48.302 C 19.547 50.259,21.371 56.496,21.749 56.117 C 21.910 55.956,21.939 56.095,21.812 56.425 C 21.685 56.755,21.938 58.369,22.374 60.012 C 22.809 61.656,23.376 63.810,23.634 64.800 C 23.891 65.790,24.422 67.770,24.814 69.200 C 25.206 70.630,25.648 72.387,25.796 73.103 C 25.944 73.820,26.199 74.324,26.362 74.223 C 26.526 74.122,26.659 74.346,26.658 74.720 C 26.656 76.698,26.841 77.622,27.195 77.403 C 27.423 77.262,27.489 77.424,27.351 77.784 C 27.219 78.128,27.387 79.262,27.725 80.305 C 28.062 81.347,28.462 82.873,28.613 83.696 C 28.764 84.520,29.003 85.122,29.144 85.035 C 29.285 84.948,29.423 85.264,29.452 85.738 C 29.609 88.356,30.712 92.901,31.129 92.644 C 31.278 92.552,31.450 93.315,31.512 94.338 C 31.656 96.727,32.700 100.400,33.235 100.400 C 33.462 100.400,33.532 100.587,33.391 100.815 C 33.073 101.329,33.571 104.465,33.935 104.240 C 34.081 104.150,34.232 104.464,34.271 104.938 C 34.495 107.654,35.524 111.693,35.929 111.446 C 36.078 111.356,36.250 112.117,36.311 113.138 C 36.446 115.402,37.134 118.088,37.519 117.851 C 37.673 117.755,37.848 118.425,37.907 119.339 C 38.018 121.061,39.176 124.800,39.599 124.800 C 39.731 124.800,39.763 125.455,39.670 126.255 C 39.540 127.363,39.622 127.634,40.012 127.393 C 40.339 127.190,40.425 127.236,40.250 127.520 C 39.899 128.087,40.381 130.059,40.805 129.797 C 40.981 129.688,41.031 129.959,40.916 130.399 C 40.801 130.840,40.877 131.200,41.084 131.200 C 41.292 131.200,41.378 131.766,41.277 132.457 C 41.164 133.226,41.246 133.619,41.488 133.469 C 41.722 133.324,41.812 133.603,41.708 134.149 C 41.610 134.658,41.771 135.327,42.065 135.637 C 42.359 135.947,42.650 136.984,42.712 137.941 C 42.773 138.899,43.088 140.316,43.412 141.090 C 43.735 141.864,44.000 142.846,44.000 143.272 C 44.000 143.699,44.163 143.946,44.363 143.823 C 44.562 143.700,44.635 143.944,44.525 144.366 C 44.414 144.788,44.611 146.121,44.962 147.328 C 45.776 150.129,45.779 153.875,44.968 155.816 C 44.562 156.787,44.383 158.166,44.468 159.665 C 44.540 160.950,44.465 162.001,44.300 162.001 C 44.135 162.000,44.000 162.608,44.000 163.351 C 44.000 164.094,43.735 165.337,43.411 166.112 C 43.087 166.888,42.742 168.783,42.645 170.323 C 42.548 171.864,42.266 173.502,42.019 173.964 C 41.772 174.426,41.470 176.018,41.348 177.502 C 41.226 178.986,40.796 181.197,40.393 182.415 C 39.968 183.698,39.614 186.097,39.551 188.115 C 39.491 190.032,39.317 191.600,39.164 191.600 C 38.593 191.600,37.686 196.597,37.446 201.062 C 37.421 201.536,37.281 201.850,37.135 201.760 C 36.795 201.549,36.442 203.887,36.307 207.261 C 36.248 208.724,36.085 209.851,35.944 209.764 C 35.566 209.532,35.113 212.336,35.442 212.869 C 35.615 213.148,35.545 213.214,35.262 213.038 C 34.934 212.835,34.800 213.401,34.800 214.989 C 34.800 216.219,34.519 217.895,34.175 218.713 C 33.537 220.230,32.715 227.506,33.107 228.162 C 33.229 228.365,33.094 228.382,32.799 228.199 C 32.408 227.958,32.332 228.095,32.500 228.738 C 32.624 229.213,32.579 229.511,32.400 229.400 C 32.046 229.181,31.661 231.703,31.507 235.264 C 31.453 236.510,31.290 237.456,31.146 237.367 C 30.061 236.696,28.993 251.318,29.990 253.182 C 30.238 253.644,30.639 253.900,30.882 253.749 C 31.154 253.581,31.210 253.660,31.027 253.956 C 30.452 254.887,41.881 263.085,43.101 262.616 C 43.398 262.502,43.537 262.578,43.410 262.785 C 43.117 263.257,44.677 264.123,45.218 263.789 C 45.439 263.652,45.570 263.779,45.510 264.070 C 45.449 264.362,45.708 264.576,46.084 264.547 C 46.461 264.518,46.731 264.698,46.684 264.947 C 46.638 265.196,46.913 265.375,47.296 265.345 C 47.678 265.315,47.898 265.442,47.783 265.628 C 47.493 266.097,49.468 267.329,49.992 267.005 C 50.227 266.859,50.370 266.979,50.310 267.270 C 50.249 267.562,50.508 267.776,50.884 267.747 C 51.261 267.718,51.531 267.845,51.484 268.030 C 51.354 268.548,58.129 272.836,58.720 272.609 C 59.007 272.499,59.146 272.563,59.030 272.752 C 58.714 273.262,66.688 278.516,67.250 278.169 C 67.519 278.003,67.618 278.047,67.480 278.271 C 67.345 278.488,68.713 279.628,70.518 280.804 C 72.323 281.979,76.081 284.459,78.870 286.313 C 81.984 288.384,84.130 289.567,84.432 289.380 C 84.731 289.195,84.821 289.242,84.662 289.499 C 84.355 289.997,87.086 291.718,87.641 291.375 C 87.849 291.246,87.970 291.379,87.910 291.670 C 87.849 291.962,88.108 292.176,88.484 292.147 C 88.861 292.118,89.131 292.278,89.084 292.503 C 88.969 293.061,96.070 297.598,96.721 297.382 C 97.007 297.287,97.142 297.371,97.020 297.568 C 96.898 297.765,98.014 298.725,99.499 299.700 C 103.141 302.092,103.937 302.486,104.470 302.157 C 104.725 301.999,104.814 302.053,104.674 302.279 C 104.340 302.821,107.874 305.325,108.461 304.962 C 108.746 304.786,108.815 304.852,108.641 305.134 C 108.300 305.686,111.943 308.108,112.686 307.822 C 112.963 307.716,113.148 307.847,113.095 308.114 C 113.043 308.381,113.313 308.575,113.696 308.545 C 114.078 308.515,114.294 308.649,114.174 308.842 C 113.908 309.272,123.132 315.348,124.071 315.362 C 124.439 315.367,124.667 315.491,124.577 315.637 C 124.312 316.065,131.911 320.902,132.387 320.608 C 132.626 320.460,132.771 320.578,132.710 320.870 C 132.649 321.163,132.911 321.375,133.296 321.345 C 133.678 321.315,133.908 321.426,133.805 321.592 C 133.703 321.757,133.993 322.232,134.450 322.646 C 135.786 323.854,136.400 325.416,136.400 327.604 C 136.400 328.728,136.542 329.559,136.716 329.452 C 136.890 329.344,136.958 329.898,136.866 330.683 C 136.765 331.552,136.853 332.014,137.092 331.867 C 137.325 331.723,137.408 332.026,137.296 332.612 C 137.192 333.155,137.263 333.601,137.453 333.603 C 137.644 333.604,137.854 335.179,137.921 337.103 C 138.043 340.627,138.589 343.598,139.115 343.602 C 139.272 343.603,139.450 345.178,139.510 347.102 C 139.625 350.754,140.262 354.400,140.784 354.400 C 140.952 354.400,141.003 354.850,140.898 355.400 C 140.793 355.950,140.872 356.400,141.073 356.400 C 141.275 356.400,141.365 357.040,141.273 357.823 C 141.182 358.605,141.386 360.270,141.727 361.523 C 142.068 362.775,142.470 365.373,142.620 367.295 C 142.771 369.217,143.008 370.719,143.147 370.633 C 143.286 370.547,143.413 371.044,143.428 371.738 C 143.577 378.516,145.163 382.877,148.000 384.309 L 149.800 385.217 193.800 385.197 C 250.934 385.170,251.775 385.103,254.076 380.400 C 255.237 378.029,256.188 373.460,255.912 371.580 C 255.818 370.942,255.890 370.370,256.071 370.310 C 256.519 370.160,257.584 364.993,257.593 362.926 C 257.597 362.005,257.793 360.745,258.029 360.126 C 258.265 359.507,258.631 357.470,258.844 355.600 C 259.056 353.730,259.482 351.351,259.789 350.313 C 260.097 349.276,260.470 347.116,260.618 345.513 C 260.767 343.911,261.125 341.790,261.416 340.800 C 261.706 339.810,262.054 337.471,262.189 335.602 C 262.325 333.732,262.682 331.477,262.983 330.589 C 263.285 329.701,263.592 327.512,263.666 325.726 C 263.740 323.939,263.909 322.544,264.042 322.626 C 264.451 322.878,266.027 320.962,265.704 320.606 C 265.537 320.422,265.630 320.404,265.910 320.566 C 266.224 320.747,268.608 319.415,272.110 317.101 C 275.240 315.034,281.444 310.952,285.898 308.030 C 290.567 304.966,293.886 302.539,293.736 302.297 C 293.581 302.045,293.669 301.996,293.956 302.173 C 294.550 302.540,302.525 297.326,302.193 296.788 C 302.064 296.580,302.193 296.486,302.479 296.580 C 302.766 296.675,304.036 296.088,305.301 295.276 C 313.348 290.115,315.881 288.462,323.693 283.275 C 328.590 280.024,332.275 277.322,332.132 277.089 C 331.979 276.843,332.073 276.798,332.366 276.979 C 333.025 277.386,338.524 273.724,338.154 273.125 C 337.988 272.857,338.057 272.788,338.324 272.953 C 338.913 273.317,342.062 271.224,341.732 270.689 C 341.581 270.445,341.673 270.398,341.956 270.573 C 342.435 270.869,345.425 269.185,350.280 265.885 C 351.644 264.958,354.884 262.826,357.480 261.147 C 372.622 251.352,371.600 252.557,371.600 244.493 C 371.600 241.005,371.418 239.463,370.800 237.704 C 370.303 236.291,369.993 234.361,369.982 232.614 C 369.973 231.042,369.687 229.094,369.336 228.200 C 368.990 227.320,368.572 225.070,368.407 223.200 C 368.242 221.330,367.813 219.103,367.454 218.251 C 367.050 217.295,366.800 215.586,366.800 213.787 C 366.800 211.995,366.494 209.894,366.005 208.336 C 365.568 206.941,365.207 204.720,365.203 203.400 C 365.195 200.872,364.550 197.860,364.078 198.151 C 363.925 198.246,363.747 196.945,363.682 195.261 C 363.617 193.578,363.312 191.300,363.003 190.200 C 362.695 189.100,362.266 186.457,362.050 184.327 C 361.834 182.196,361.483 180.126,361.270 179.727 C 361.057 179.327,360.764 177.560,360.618 175.800 C 360.283 171.771,360.015 170.343,359.638 170.577 C 359.474 170.678,359.351 170.454,359.363 170.080 C 359.444 167.669,358.148 160.001,357.660 159.999 C 357.517 159.998,357.396 158.873,357.390 157.499 C 357.378 154.256,356.895 151.894,356.318 152.251 C 356.061 152.410,355.989 152.341,356.146 152.087 C 356.294 151.848,356.251 150.920,356.050 150.026 C 355.849 149.132,355.817 148.400,355.978 148.400 C 356.319 148.400,357.061 146.191,357.592 143.600 C 357.795 142.610,358.245 140.810,358.592 139.600 C 358.940 138.390,359.148 137.094,359.054 136.719 C 358.961 136.345,359.047 135.984,359.245 135.918 C 359.755 135.748,361.745 128.499,361.775 126.700 C 361.789 125.875,361.906 125.200,362.036 125.200 C 362.481 125.200,363.300 122.086,362.988 121.581 C 362.774 121.234,362.838 121.176,363.192 121.395 C 363.580 121.635,363.665 121.421,363.533 120.527 C 363.431 119.827,363.586 119.128,363.914 118.823 C 364.219 118.538,364.380 117.966,364.271 117.552 C 364.163 117.138,364.229 116.894,364.417 117.011 C 364.605 117.127,364.875 116.542,365.015 115.711 C 365.156 114.880,365.547 113.442,365.884 112.515 C 366.221 111.588,366.387 110.544,366.253 110.194 C 366.097 109.787,366.170 109.658,366.455 109.834 C 366.761 110.023,366.847 109.657,366.731 108.661 C 366.638 107.864,366.712 107.163,366.895 107.102 C 367.322 106.959,368.359 104.063,368.382 102.949 C 368.392 102.481,368.686 101.413,369.036 100.577 C 369.385 99.740,369.823 98.233,370.009 97.228 C 370.391 95.165,371.354 91.530,372.268 88.696 C 372.606 87.650,372.776 86.515,372.646 86.176 C 372.510 85.823,372.578 85.663,372.805 85.803 C 373.159 86.022,373.344 85.098,373.342 83.120 C 373.341 82.746,373.517 82.549,373.733 82.682 C 373.967 82.827,374.034 82.575,373.900 82.062 C 373.776 81.587,373.829 81.294,374.017 81.411 C 374.469 81.690,374.966 78.992,374.578 78.364 C 374.407 78.088,374.443 77.979,374.661 78.114 C 375.134 78.407,376.535 73.341,376.152 72.722 C 375.997 72.471,376.056 72.388,376.288 72.531 C 376.809 72.853,377.799 69.445,377.381 68.770 C 377.205 68.485,377.241 68.378,377.466 68.517 C 377.686 68.653,378.173 67.499,378.579 65.879 C 378.976 64.296,379.568 62.147,379.895 61.105 C 380.222 60.062,380.370 58.898,380.223 58.517 C 380.077 58.136,380.092 57.959,380.256 58.123 C 380.644 58.511,381.684 54.460,381.339 53.902 C 381.195 53.668,381.260 53.590,381.485 53.729 C 381.959 54.022,382.930 49.734,382.534 49.093 C 382.390 48.861,382.468 48.795,382.709 48.944 C 383.162 49.224,383.374 48.727,383.792 46.400 C 383.930 45.630,384.287 44.370,384.586 43.600 C 385.393 41.522,386.472 37.179,386.540 35.733 C 386.573 35.037,386.680 34.546,386.777 34.644 C 387.048 34.915,388.137 30.768,388.170 29.338 C 388.187 28.644,388.335 28.160,388.500 28.262 C 388.665 28.364,388.800 28.161,388.800 27.811 C 388.800 27.461,389.179 26.055,389.642 24.687 C 392.324 16.767,387.973 11.155,381.098 13.666 M373.926 33.510 C 373.995 34.231,373.242 37.741,372.251 41.310 C 371.261 44.880,369.611 50.950,368.585 54.800 C 367.559 58.650,366.006 64.410,365.134 67.600 C 364.261 70.790,362.829 76.100,361.951 79.400 C 361.072 82.700,359.104 89.922,357.577 95.448 C 356.050 100.974,354.288 107.454,353.661 109.848 C 353.035 112.242,351.864 116.585,351.061 119.500 C 347.760 131.474,346.641 135.712,345.139 141.920 L 343.562 148.440 344.365 153.120 C 344.807 155.694,345.531 160.500,345.974 163.800 C 346.417 167.100,346.963 170.428,347.189 171.195 C 347.414 171.962,347.880 174.662,348.223 177.195 C 348.567 179.728,349.012 182.430,349.213 183.200 C 349.413 183.970,349.939 187.120,350.381 190.200 C 350.822 193.280,351.547 197.780,351.992 200.200 C 352.436 202.620,353.529 209.190,354.422 214.800 C 355.314 220.410,356.378 226.890,356.785 229.200 C 358.662 239.850,358.903 241.617,358.693 243.186 C 358.367 245.613,359.012 245.131,335.036 260.860 C 322.916 268.810,305.710 280.124,296.800 286.002 C 265.288 306.789,264.977 306.977,263.790 305.991 C 262.931 305.279,263.030 304.281,265.197 291.800 C 266.114 286.520,267.205 280.040,267.623 277.400 C 268.040 274.760,268.744 270.530,269.186 268.000 C 272.626 248.333,272.566 246.800,268.365 246.800 C 265.162 246.800,264.381 248.116,263.019 255.800 C 262.434 259.100,261.618 263.690,261.205 266.000 C 260.205 271.591,259.427 276.408,258.200 284.600 C 257.640 288.340,256.919 292.660,256.599 294.200 C 256.279 295.740,255.737 298.800,255.395 301.000 C 255.053 303.200,254.345 307.160,253.821 309.800 C 253.298 312.440,252.752 315.590,252.609 316.800 C 252.343 319.051,251.753 322.575,250.401 330.000 C 249.980 332.310,249.462 335.550,249.249 337.200 C 248.769 340.933,247.452 348.961,246.199 355.800 C 245.675 358.660,244.948 362.890,244.583 365.200 C 243.538 371.808,243.531 371.813,235.800 372.171 C 224.782 372.680,225.229 373.208,225.213 359.687 C 225.195 344.813,225.778 345.600,214.761 345.600 C 206.706 345.600,205.108 345.250,204.363 343.319 C 204.060 342.534,203.971 328.723,204.066 297.067 L 204.200 251.933 203.078 250.967 C 201.431 249.549,199.104 249.634,197.569 251.169 L 196.400 252.338 196.356 258.069 C 196.332 261.221,196.251 275.590,196.175 290.000 C 196.083 307.649,195.885 317.112,195.567 318.995 C 195.199 321.176,195.206 322.625,195.598 325.595 C 196.223 330.323,195.973 342.102,195.214 343.673 C 194.427 345.303,193.209 345.553,185.400 345.682 C 174.291 345.865,174.725 345.296,174.420 360.090 C 174.141 373.647,174.865 372.546,166.104 372.738 C 156.021 372.958,156.032 372.968,154.580 363.233 C 152.725 350.805,151.569 343.443,150.624 338.061 C 150.095 335.042,149.461 331.048,149.217 329.186 C 148.972 327.324,148.515 324.540,148.202 323.000 C 147.491 319.503,144.549 300.305,144.188 296.800 C 144.040 295.370,143.677 293.120,143.381 291.800 C 143.084 290.480,142.110 284.540,141.217 278.600 C 140.324 272.660,139.326 266.360,139.000 264.600 C 138.674 262.840,138.029 259.150,137.565 256.400 C 136.301 248.898,135.251 247.201,132.226 247.769 C 130.870 248.023,128.787 249.952,128.812 250.931 C 128.909 254.851,129.794 262.429,130.595 266.200 C 131.155 268.840,131.795 272.890,132.016 275.200 C 132.238 277.510,132.686 280.331,133.012 281.469 C 133.338 282.607,133.709 285.217,133.837 287.269 C 134.056 290.762,135.456 298.850,136.387 301.997 C 136.938 303.862,136.909 305.731,136.320 306.320 C 135.043 307.597,134.367 307.228,116.000 295.222 C 98.098 283.520,70.573 265.635,55.200 255.716 C 43.138 247.933,42.800 247.628,42.800 244.553 C 42.800 242.520,44.583 231.474,45.028 230.755 C 45.131 230.589,45.493 228.325,45.833 225.726 C 46.173 223.127,46.968 218.390,47.600 215.200 C 48.232 212.010,48.868 208.410,49.013 207.200 C 49.159 205.990,49.441 204.346,49.642 203.547 C 49.842 202.748,50.269 200.408,50.592 198.347 C 50.914 196.286,51.541 192.710,51.984 190.400 C 52.428 188.090,53.594 181.520,54.577 175.800 C 55.560 170.080,56.746 163.240,57.213 160.600 C 59.236 149.159,60.168 154.872,49.743 114.800 C 48.341 109.410,46.565 102.480,45.796 99.400 C 45.028 96.320,43.682 91.190,42.807 88.000 C 39.927 77.510,30.922 42.632,30.166 39.039 C 28.802 32.557,27.660 32.249,63.400 47.998 C 96.100 62.407,114.576 70.120,116.400 70.121 C 117.679 70.123,119.790 69.466,123.689 67.856 C 175.377 46.510,233.160 45.835,278.656 66.046 C 287.130 69.811,285.031 70.165,303.800 61.803 C 314.062 57.230,321.596 53.906,332.800 49.006 C 336.650 47.323,343.940 44.078,349.000 41.796 C 372.924 31.004,373.661 30.759,373.926 33.510 M347.400 58.778 C 346.300 59.187,339.370 62.439,332.000 66.005 C 324.630 69.570,314.820 74.279,310.200 76.469 C 299.685 81.454,298.839 82.203,300.160 85.366 C 301.799 89.289,302.316 89.164,320.828 80.379 C 341.476 70.580,341.100 70.625,338.984 78.200 C 338.431 80.180,337.604 83.510,337.147 85.600 C 336.689 87.690,335.511 92.190,334.529 95.600 C 329.326 113.668,328.763 116.703,330.300 118.408 C 333.952 122.458,336.212 120.110,339.236 109.121 C 341.253 101.795,348.555 74.812,351.054 65.456 C 352.823 58.828,351.885 57.112,347.400 58.778 M52.820 61.071 C 51.592 61.931,51.862 65.589,53.600 71.600 C 54.267 73.910,55.446 78.410,56.220 81.600 C 59.028 93.184,59.880 96.409,65.291 115.915 C 66.779 121.280,68.943 122.973,72.246 121.358 C 75.217 119.905,75.406 121.068,66.710 87.400 C 62.854 72.467,62.584 72.735,75.400 78.731 C 100.492 90.470,100.713 90.549,102.831 88.431 C 106.062 85.200,104.468 83.290,94.795 78.803 C 52.459 59.165,54.381 59.977,52.820 61.071 M237.379 81.204 C 236.492 81.642,234.000 83.801,231.839 86.000 C 226.439 91.499,226.456 91.500,220.303 85.647 C 213.773 79.436,213.908 79.439,207.485 85.352 C 200.898 91.417,200.956 91.406,196.800 87.430 C 188.347 79.343,188.221 79.336,180.956 86.614 C 175.759 91.819,175.803 91.821,169.798 86.016 C 163.006 79.448,163.279 79.408,154.255 88.331 C 146.860 95.643,146.058 96.808,146.952 98.948 C 148.735 103.214,151.311 102.725,157.217 97.000 C 163.551 90.860,163.279 90.865,169.371 96.754 C 175.825 102.995,176.223 102.996,182.600 96.800 C 188.811 90.765,188.855 90.766,195.295 97.112 C 200.937 102.672,201.400 102.736,205.699 98.572 C 214.274 90.266,213.620 90.368,219.773 96.374 C 226.199 102.646,226.401 102.648,233.048 96.490 C 239.747 90.284,239.099 90.291,245.376 96.360 C 250.755 101.561,252.836 102.168,254.949 99.152 C 256.578 96.825,256.124 96.030,249.100 88.913 C 240.400 80.098,240.062 79.876,237.379 81.204 M232.000 130.961 C 226.515 133.494,215.148 138.674,208.200 141.806 C 199.386 145.779,202.478 146.376,173.000 135.011 C 166.504 132.506,164.453 132.286,162.823 133.916 C 159.948 136.790,161.658 139.194,168.400 141.757 C 170.930 142.719,178.728 145.687,185.729 148.353 C 202.214 154.631,198.993 154.789,216.550 146.834 C 240.574 135.948,240.400 136.047,240.400 133.271 C 240.400 129.370,237.295 128.516,232.000 130.961 M250.800 150.761 C 248.937 151.369,221.257 162.352,208.200 167.663 C 199.624 171.152,203.461 171.815,173.234 161.618 C 160.162 157.208,148.943 153.600,148.303 153.600 C 145.274 153.600,143.585 158.113,145.834 160.196 C 146.548 160.858,151.287 162.636,161.134 165.937 C 168.980 168.568,180.530 172.465,186.800 174.598 C 201.951 179.752,198.885 179.993,218.635 172.097 C 227.416 168.587,239.072 163.959,244.537 161.812 C 257.131 156.867,258.532 155.736,256.630 152.058 C 255.574 150.016,254.092 149.686,250.800 150.761 M286.400 170.725 C 285.850 170.808,283.111 171.758,280.313 172.838 C 277.514 173.917,275.133 174.800,275.020 174.800 C 274.732 174.800,261.893 179.445,254.000 182.404 C 250.370 183.765,243.260 186.374,238.200 188.203 C 202.978 200.929,205.035 199.629,208.517 206.961 C 227.104 246.100,285.770 229.758,282.955 186.226 C 282.618 181.014,282.765 180.747,287.032 178.785 C 290.744 177.078,291.474 176.188,291.044 173.895 C 290.627 171.671,288.728 170.375,286.400 170.725 M111.622 173.116 C 109.143 175.596,110.040 178.031,114.200 180.113 C 117.257 181.643,117.752 182.368,117.457 184.889 C 116.689 191.465,116.713 192.548,117.731 197.405 C 121.216 214.018,131.385 224.861,147.200 228.827 C 165.167 233.333,185.151 223.150,192.369 205.813 C 194.946 199.622,197.182 200.914,163.600 189.186 C 133.818 178.786,124.332 175.416,119.800 173.627 C 114.937 171.708,113.143 171.596,111.622 173.116 M274.315 186.000 C 274.705 186.731,274.790 188.076,274.631 191.000 C 273.121 218.675,239.883 231.495,221.400 211.531 C 217.578 207.402,217.049 204.985,219.711 203.805 C 228.259 200.014,228.651 199.988,232.555 202.979 C 243.978 211.727,258.043 206.494,260.999 192.396 C 261.784 188.650,262.385 188.033,267.000 186.234 C 271.350 184.538,273.498 184.469,274.315 186.000 M132.925 187.041 C 137.243 188.480,137.726 189.011,139.400 194.180 C 143.852 207.921,157.801 212.491,167.852 203.500 C 170.922 200.754,171.984 200.630,176.980 202.438 C 182.096 204.289,182.999 205.867,180.867 209.230 C 173.352 221.079,154.140 225.228,141.052 217.829 C 131.825 212.613,126.638 203.893,126.112 192.713 C 125.776 185.584,126.568 184.925,132.925 187.041 M250.967 193.043 C 253.141 193.877,249.881 197.947,246.177 199.024 C 242.230 200.171,238.815 197.719,241.715 195.819 C 244.157 194.219,249.699 192.556,250.967 193.043 M155.561 194.801 C 160.188 196.432,161.258 197.500,159.690 198.919 C 157.168 201.201,150.482 199.172,149.173 195.728 C 148.241 193.278,150.367 192.969,155.561 194.801 M329.364 213.328 C 313.970 223.247,295.645 235.631,294.702 236.752 C 293.438 238.254,293.019 239.696,292.425 244.600 C 292.185 246.580,291.631 251.016,291.194 254.457 C 289.996 263.898,290.434 265.600,294.062 265.600 C 297.335 265.600,298.099 264.374,298.800 257.997 C 299.053 255.704,299.331 253.712,299.419 253.569 C 299.507 253.427,299.848 251.013,300.176 248.205 C 300.999 241.172,300.455 241.781,313.600 233.198 C 341.764 214.809,341.412 215.098,339.341 211.989 C 337.330 208.968,335.815 209.171,329.364 213.328 M61.882 213.114 C 59.275 215.835,60.329 217.953,66.117 221.631 C 73.210 226.136,96.247 241.251,97.030 241.913 C 98.615 243.253,99.176 244.597,99.409 247.613 C 99.668 250.952,100.734 261.100,101.036 263.088 C 101.656 267.170,107.252 268.579,109.049 265.106 C 109.787 263.678,109.722 262.208,108.441 251.400 C 106.814 237.672,107.475 238.711,95.400 230.903 C 91.000 228.058,83.520 223.202,78.777 220.112 C 65.087 211.193,64.111 210.788,61.882 213.114 M214.937 354.044 C 216.657 354.828,216.842 355.908,216.548 363.449 C 216.171 373.086,217.609 372.357,198.919 372.383 C 181.990 372.405,183.200 373.147,183.200 362.755 C 183.200 355.652,183.404 354.616,184.926 354.003 C 186.258 353.466,213.752 353.504,214.937 354.044 " stroke="none" fill="#f4f3f3" fill-rule="evenodd"></path><path id="path1" d="M364.600 34.837 C 361.080 36.382,354.060 39.513,349.000 41.796 C 343.940 44.078,336.650 47.323,332.800 49.006 C 321.596 53.906,314.062 57.230,303.800 61.803 C 285.031 70.165,287.130 69.811,278.656 66.046 C 233.160 45.835,175.377 46.510,123.689 67.856 C 119.790 69.466,117.679 70.123,116.400 70.121 C 114.576 70.120,96.100 62.407,63.400 47.998 C 27.660 32.249,28.802 32.557,30.166 39.039 C 30.922 42.632,39.927 77.510,42.807 88.000 C 43.682 91.190,45.028 96.320,45.796 99.400 C 46.565 102.480,48.341 109.410,49.743 114.800 C 60.168 154.872,59.236 149.159,57.213 160.600 C 56.746 163.240,55.560 170.080,54.577 175.800 C 53.594 181.520,52.428 188.090,51.984 190.400 C 51.541 192.710,50.914 196.286,50.592 198.347 C 50.269 200.408,49.842 202.748,49.642 203.547 C 49.441 204.346,49.159 205.990,49.013 207.200 C 48.868 208.410,48.232 212.010,47.600 215.200 C 46.968 218.390,46.173 223.127,45.833 225.726 C 45.493 228.325,45.131 230.589,45.028 230.755 C 44.583 231.474,42.800 242.520,42.800 244.553 C 42.800 247.628,43.138 247.933,55.200 255.716 C 70.573 265.635,98.098 283.520,116.000 295.222 C 134.367 307.228,135.043 307.597,136.320 306.320 C 136.909 305.731,136.938 303.862,136.387 301.997 C 135.456 298.850,134.056 290.762,133.837 287.269 C 133.709 285.217,133.338 282.607,133.012 281.469 C 132.686 280.331,132.238 277.510,132.016 275.200 C 131.795 272.890,131.155 268.840,130.595 266.200 C 129.794 262.429,128.909 254.851,128.812 250.931 C 128.787 249.952,130.870 248.023,132.226 247.769 C 135.251 247.201,136.301 248.898,137.565 256.400 C 138.029 259.150,138.674 262.840,139.000 264.600 C 139.326 266.360,140.324 272.660,141.217 278.600 C 142.110 284.540,143.084 290.480,143.381 291.800 C 143.677 293.120,144.040 295.370,144.188 296.800 C 144.549 300.305,147.491 319.503,148.202 323.000 C 148.515 324.540,148.972 327.324,149.217 329.186 C 149.461 331.048,150.095 335.042,150.624 338.061 C 151.569 343.443,152.725 350.805,154.580 363.233 C 156.032 372.968,156.021 372.958,166.104 372.738 C 174.865 372.546,174.141 373.647,174.420 360.090 C 174.725 345.296,174.291 345.865,185.400 345.682 C 193.209 345.553,194.427 345.303,195.214 343.673 C 195.973 342.102,196.223 330.323,195.598 325.595 C 195.206 322.625,195.199 321.176,195.567 318.995 C 195.885 317.112,196.083 307.649,196.175 290.000 C 196.251 275.590,196.332 261.221,196.356 258.069 L 196.400 252.338 197.569 251.169 C 199.104 249.634,201.431 249.549,203.078 250.967 L 204.200 251.933 204.066 297.067 C 203.971 328.723,204.060 342.534,204.363 343.319 C 205.108 345.250,206.706 345.600,214.761 345.600 C 225.778 345.600,225.195 344.813,225.213 359.687 C 225.229 373.208,224.782 372.680,235.800 372.171 C 243.531 371.813,243.538 371.808,244.583 365.200 C 244.948 362.890,245.675 358.660,246.199 355.800 C 247.452 348.961,248.769 340.933,249.249 337.200 C 249.462 335.550,249.980 332.310,250.401 330.000 C 251.753 322.575,252.343 319.051,252.609 316.800 C 252.752 315.590,253.298 312.440,253.821 309.800 C 254.345 307.160,255.053 303.200,255.395 301.000 C 255.737 298.800,256.279 295.740,256.599 294.200 C 256.919 292.660,257.640 288.340,258.200 284.600 C 259.427 276.408,260.205 271.591,261.205 266.000 C 261.618 263.690,262.434 259.100,263.019 255.800 C 264.381 248.116,265.162 246.800,268.365 246.800 C 272.566 246.800,272.626 248.333,269.186 268.000 C 268.744 270.530,268.040 274.760,267.623 277.400 C 267.205 280.040,266.114 286.520,265.197 291.800 C 263.030 304.281,262.931 305.279,263.790 305.991 C 264.977 306.977,265.288 306.789,296.800 286.002 C 305.710 280.124,322.916 268.810,335.036 260.860 C 359.012 245.131,358.367 245.613,358.693 243.186 C 358.903 241.617,358.662 239.850,356.785 229.200 C 356.378 226.890,355.314 220.410,354.422 214.800 C 353.529 209.190,352.436 202.620,351.992 200.200 C 351.547 197.780,350.822 193.280,350.381 190.200 C 349.939 187.120,349.413 183.970,349.213 183.200 C 349.012 182.430,348.567 179.728,348.223 177.195 C 347.880 174.662,347.414 171.962,347.189 171.195 C 346.963 170.428,346.417 167.100,345.974 163.800 C 345.531 160.500,344.807 155.694,344.365 153.120 L 343.562 148.440 345.139 141.920 C 346.641 135.712,347.760 131.474,351.061 119.500 C 351.864 116.585,353.035 112.242,353.661 109.848 C 354.288 107.454,356.050 100.974,357.577 95.448 C 359.104 89.922,361.072 82.700,361.951 79.400 C 362.829 76.100,364.261 70.790,365.134 67.600 C 366.006 64.410,367.559 58.650,368.585 54.800 C 369.611 50.950,371.261 44.880,372.251 41.310 C 375.207 30.657,374.837 30.344,364.600 34.837 M351.500 58.898 C 352.246 59.495,352.109 61.502,351.054 65.456 C 348.555 74.812,341.253 101.795,339.236 109.121 C 336.212 120.110,333.952 122.458,330.300 118.408 C 328.763 116.703,329.326 113.668,334.529 95.600 C 335.511 92.190,336.689 87.690,337.147 85.600 C 337.604 83.510,338.431 80.180,338.984 78.200 C 341.100 70.625,341.476 70.580,320.828 80.379 C 302.316 89.164,301.799 89.289,300.160 85.366 C 298.839 82.203,299.685 81.454,310.200 76.469 C 314.820 74.279,324.630 69.570,332.000 66.005 C 349.180 57.693,349.739 57.489,351.500 58.898 M59.200 62.413 C 62.143 63.705,76.126 70.143,94.795 78.803 C 104.468 83.290,106.062 85.200,102.831 88.431 C 100.713 90.549,100.492 90.470,75.400 78.731 C 62.584 72.735,62.854 72.467,66.710 87.400 C 75.406 121.068,75.217 119.905,72.246 121.358 C 68.943 122.973,66.779 121.280,65.291 115.915 C 59.880 96.409,59.028 93.184,56.220 81.600 C 55.446 78.410,54.267 73.910,53.600 71.600 C 50.449 60.698,51.471 59.022,59.200 62.413 M241.600 81.616 C 242.150 82.007,245.525 85.291,249.100 88.913 C 256.124 96.030,256.578 96.825,254.949 99.152 C 252.836 102.168,250.755 101.561,245.376 96.360 C 239.099 90.291,239.747 90.284,233.048 96.490 C 226.401 102.648,226.199 102.646,219.773 96.374 C 213.620 90.368,214.274 90.266,205.699 98.572 C 201.400 102.736,200.937 102.672,195.295 97.112 C 188.855 90.766,188.811 90.765,182.600 96.800 C 176.223 102.996,175.825 102.995,169.371 96.754 C 163.279 90.865,163.551 90.860,157.217 97.000 C 151.311 102.725,148.735 103.214,146.952 98.948 C 146.058 96.808,146.860 95.643,154.255 88.331 C 163.279 79.408,163.006 79.448,169.798 86.016 C 175.803 91.821,175.759 91.819,180.956 86.614 C 188.221 79.336,188.347 79.343,196.800 87.430 C 200.956 91.406,200.898 91.417,207.485 85.352 C 213.908 79.439,213.773 79.436,220.303 85.647 C 226.456 91.500,226.439 91.499,231.839 86.000 C 237.229 80.513,238.957 79.736,241.600 81.616 M239.040 130.560 C 240.557 132.077,240.854 133.974,239.809 135.466 C 238.477 137.368,203.365 153.200,200.479 153.200 C 198.862 153.200,195.911 152.230,185.729 148.353 C 178.728 145.687,170.930 142.719,168.400 141.757 C 161.658 139.194,159.948 136.790,162.823 133.916 C 164.453 132.286,166.504 132.506,173.000 135.011 C 202.478 146.376,199.386 145.779,208.200 141.806 C 215.148 138.674,226.515 133.494,232.000 130.961 C 236.592 128.840,237.281 128.801,239.040 130.560 M255.011 150.478 C 256.259 151.046,257.200 152.706,257.200 154.339 C 257.200 156.461,255.281 157.593,244.537 161.812 C 239.072 163.959,227.416 168.587,218.635 172.097 C 198.885 179.993,201.951 179.752,186.800 174.598 C 180.530 172.465,168.980 168.568,161.134 165.937 C 151.287 162.636,146.548 160.858,145.834 160.196 C 143.585 158.113,145.274 153.600,148.303 153.600 C 148.943 153.600,160.162 157.208,173.234 161.618 C 203.461 171.815,199.624 171.152,208.200 167.663 C 247.165 151.813,253.133 149.622,255.011 150.478 M289.894 171.719 C 292.525 174.099,291.449 176.754,287.032 178.785 C 282.765 180.747,282.618 181.014,282.955 186.226 C 285.770 229.758,227.104 246.100,208.517 206.961 C 205.035 199.629,202.978 200.929,238.200 188.203 C 243.260 186.374,250.370 183.765,254.000 182.404 C 261.893 179.445,274.732 174.800,275.020 174.800 C 275.133 174.800,277.514 173.917,280.313 172.838 C 287.097 170.221,288.107 170.103,289.894 171.719 M119.800 173.627 C 124.332 175.416,133.818 178.786,163.600 189.186 C 197.182 200.914,194.946 199.622,192.369 205.813 C 177.374 241.832,125.832 236.026,117.731 197.405 C 116.713 192.548,116.689 191.465,117.457 184.889 C 117.752 182.368,117.257 181.643,114.200 180.113 C 110.040 178.031,109.143 175.596,111.622 173.116 C 113.143 171.596,114.937 171.708,119.800 173.627 M267.000 186.234 C 262.385 188.033,261.784 188.650,260.999 192.396 C 258.043 206.494,243.978 211.727,232.555 202.979 C 228.651 199.988,228.259 200.014,219.711 203.805 C 217.049 204.985,217.578 207.402,221.400 211.531 C 239.883 231.495,273.121 218.675,274.631 191.000 C 274.992 184.376,273.752 183.602,267.000 186.234 M126.555 187.013 C 124.973 189.426,126.327 199.339,129.009 204.992 C 136.490 220.756,157.820 226.726,172.247 217.094 C 183.067 209.870,184.579 205.188,176.980 202.438 C 171.984 200.630,170.922 200.754,167.852 203.500 C 157.801 212.491,143.852 207.921,139.400 194.180 C 137.726 189.011,137.243 188.480,132.925 187.041 C 128.876 185.693,127.424 185.687,126.555 187.013 M245.839 194.013 C 241.554 195.606,240.721 196.192,240.876 197.511 C 241.333 201.416,251.600 198.287,251.600 194.243 C 251.600 192.455,250.186 192.398,245.839 194.013 M149.054 194.203 C 148.429 195.832,151.232 198.855,154.078 199.621 C 156.882 200.376,160.400 199.363,160.400 197.800 C 160.400 195.760,149.752 192.384,149.054 194.203 M338.065 210.500 C 342.693 214.244,342.848 214.101,313.600 233.198 C 300.455 241.781,300.999 241.172,300.176 248.205 C 299.848 251.013,299.507 253.427,299.419 253.569 C 299.331 253.712,299.053 255.704,298.800 257.997 C 298.099 264.374,297.335 265.600,294.062 265.600 C 290.434 265.600,289.996 263.898,291.194 254.457 C 291.631 251.016,292.185 246.580,292.425 244.600 C 293.374 236.767,292.624 237.559,309.991 226.062 C 336.162 208.736,335.998 208.827,338.065 210.500 M67.944 213.247 C 69.159 213.932,74.034 217.022,78.777 220.112 C 83.520 223.202,91.000 228.058,95.400 230.903 C 107.475 238.711,106.814 237.672,108.441 251.400 C 109.722 262.208,109.787 263.678,109.049 265.106 C 107.252 268.579,101.656 267.170,101.036 263.088 C 100.734 261.100,99.668 250.952,99.409 247.613 C 99.176 244.597,98.615 243.253,97.030 241.913 C 96.247 241.251,73.210 226.136,66.117 221.631 C 60.329 217.953,59.275 215.835,61.882 213.114 C 63.328 211.605,65.105 211.644,67.944 213.247 M184.926 354.003 C 183.404 354.616,183.200 355.652,183.200 362.755 C 183.200 373.147,181.990 372.405,198.919 372.383 C 217.609 372.357,216.171 373.086,216.548 363.449 C 216.842 355.908,216.657 354.828,214.937 354.044 C 213.752 353.504,186.258 353.466,184.926 354.003 M159.725 385.499 C 163.424 385.566,169.364 385.565,172.925 385.499 C 176.486 385.433,173.460 385.379,166.200 385.379 C 158.940 385.379,156.026 385.433,159.725 385.499 " stroke="none" fill="#30231d" fill-rule="evenodd"></path></g></svg>